<?xml version="1.0" encoding="utf-8"?>
<!-- Generator: Adobe Illustrator 24.2.1, SVG Export Plug-In . SVG Version: 6.00 Build 0)  -->
<svg version="1.1" id="Capa_1" xmlns="http://www.w3.org/2000/svg" xmlns:xlink="http://www.w3.org/1999/xlink" x="0px" y="0px"
	 viewBox="0 0 501.7 99.4" style="enable-background:new 0 0 501.7 99.4;" xml:space="preserve">
<style type="text/css">
	.st0{fill:#0B1623;}
</style>
<g>
	<g>
		<circle class="st0" cx="2.4" cy="97" r="2.4"/>
		<circle class="st0" cx="2.4" cy="73.4" r="2.4"/>
		<circle class="st0" cx="2.4" cy="49.7" r="2.4"/>
		<circle class="st0" cx="2.4" cy="26" r="2.4"/>
		<circle class="st0" cx="2.4" cy="2.4" r="2.4"/>
		<circle class="st0" cx="26.1" cy="97" r="2.4"/>
		<circle class="st0" cx="26.1" cy="73.4" r="2.4"/>
		<circle class="st0" cx="26.1" cy="49.7" r="2.4"/>
		<circle class="st0" cx="26.1" cy="26" r="2.4"/>
		<circle class="st0" cx="26.1" cy="2.4" r="2.4"/>
		<circle class="st0" cx="49.7" cy="97" r="2.4"/>
		<circle class="st0" cx="49.7" cy="73.4" r="2.4"/>
		<circle class="st0" cx="49.7" cy="49.7" r="2.4"/>
		<circle class="st0" cx="49.7" cy="26" r="2.4"/>
		<circle class="st0" cx="49.7" cy="2.4" r="2.4"/>
		<circle class="st0" cx="73.4" cy="97" r="2.4"/>
		<circle class="st0" cx="73.4" cy="73.4" r="2.4"/>
		<circle class="st0" cx="73.4" cy="49.7" r="2.4"/>
		<circle class="st0" cx="73.4" cy="26" r="2.4"/>
		<circle class="st0" cx="73.4" cy="2.4" r="2.4"/>
		<circle class="st0" cx="97.1" cy="97" r="2.4"/>
		<circle class="st0" cx="97.1" cy="73.4" r="2.4"/>
		<circle class="st0" cx="97.1" cy="49.7" r="2.4"/>
		<circle class="st0" cx="97.1" cy="26" r="2.4"/>
		<circle class="st0" cx="97.1" cy="2.4" r="2.4"/>
		<circle class="st0" cx="120.7" cy="97" r="2.4"/>
		<circle class="st0" cx="120.7" cy="73.4" r="2.4"/>
		<circle class="st0" cx="120.7" cy="49.7" r="2.4"/>
		<circle class="st0" cx="120.7" cy="26" r="2.4"/>
		<circle class="st0" cx="120.7" cy="2.4" r="2.4"/>
		<circle class="st0" cx="144.4" cy="97" r="2.4"/>
		<circle class="st0" cx="144.4" cy="73.4" r="2.4"/>
		<circle class="st0" cx="144.4" cy="49.7" r="2.4"/>
		<circle class="st0" cx="144.4" cy="26" r="2.4"/>
		<circle class="st0" cx="144.4" cy="2.4" r="2.4"/>
		<circle class="st0" cx="168.1" cy="97" r="2.4"/>
		<circle class="st0" cx="168.1" cy="73.4" r="2.4"/>
		<circle class="st0" cx="168.1" cy="49.7" r="2.4"/>
		<circle class="st0" cx="168.1" cy="26" r="2.4"/>
		<circle class="st0" cx="168.1" cy="2.4" r="2.4"/>
		<circle class="st0" cx="191.7" cy="97" r="2.4"/>
		<circle class="st0" cx="191.7" cy="73.4" r="2.4"/>
		<circle class="st0" cx="191.7" cy="49.7" r="2.4"/>
		<circle class="st0" cx="191.7" cy="26" r="2.4"/>
		<circle class="st0" cx="191.7" cy="2.4" r="2.4"/>
		<circle class="st0" cx="215.4" cy="97" r="2.4"/>
		<circle class="st0" cx="215.4" cy="73.4" r="2.4"/>
		<circle class="st0" cx="215.4" cy="49.7" r="2.4"/>
		<circle class="st0" cx="215.4" cy="26" r="2.4"/>
		<circle class="st0" cx="215.4" cy="2.4" r="2.4"/>
		<circle class="st0" cx="239" cy="97" r="2.4"/>
		<circle class="st0" cx="239" cy="73.4" r="2.4"/>
		<circle class="st0" cx="239" cy="49.7" r="2.4"/>
		<circle class="st0" cx="239" cy="26" r="2.4"/>
		<circle class="st0" cx="239" cy="2.4" r="2.4"/>
		<circle class="st0" cx="262.7" cy="97" r="2.4"/>
		<circle class="st0" cx="262.7" cy="73.4" r="2.4"/>
		<circle class="st0" cx="262.7" cy="49.7" r="2.4"/>
		<circle class="st0" cx="262.7" cy="26" r="2.4"/>
		<circle class="st0" cx="262.7" cy="2.4" r="2.4"/>
		<circle class="st0" cx="286.4" cy="97" r="2.4"/>
		<circle class="st0" cx="286.4" cy="73.4" r="2.4"/>
		<circle class="st0" cx="286.4" cy="49.7" r="2.4"/>
		<circle class="st0" cx="286.4" cy="26" r="2.4"/>
		<circle class="st0" cx="286.4" cy="2.4" r="2.4"/>
		<circle class="st0" cx="310" cy="97" r="2.4"/>
		<circle class="st0" cx="310" cy="73.4" r="2.4"/>
		<circle class="st0" cx="310" cy="49.7" r="2.4"/>
		<circle class="st0" cx="310" cy="26" r="2.4"/>
		<circle class="st0" cx="310" cy="2.4" r="2.4"/>
		<circle class="st0" cx="333.7" cy="97" r="2.4"/>
		<circle class="st0" cx="333.7" cy="73.4" r="2.4"/>
		<circle class="st0" cx="333.7" cy="49.7" r="2.4"/>
		<circle class="st0" cx="333.7" cy="26" r="2.4"/>
		<circle class="st0" cx="333.7" cy="2.4" r="2.4"/>
		<circle class="st0" cx="357.4" cy="97" r="2.4"/>
		<circle class="st0" cx="357.4" cy="73.4" r="2.4"/>
		<circle class="st0" cx="357.4" cy="49.7" r="2.4"/>
		<circle class="st0" cx="357.4" cy="26" r="2.4"/>
		<circle class="st0" cx="357.4" cy="2.4" r="2.4"/>
		<circle class="st0" cx="381" cy="97" r="2.4"/>
		<circle class="st0" cx="381" cy="73.4" r="2.4"/>
		<circle class="st0" cx="381" cy="49.7" r="2.4"/>
		<circle class="st0" cx="381" cy="26" r="2.4"/>
		<circle class="st0" cx="381" cy="2.4" r="2.4"/>
		<circle class="st0" cx="404.7" cy="97" r="2.4"/>
		<circle class="st0" cx="404.7" cy="73.4" r="2.4"/>
		<circle class="st0" cx="404.7" cy="49.7" r="2.4"/>
		<circle class="st0" cx="404.7" cy="26" r="2.4"/>
		<circle class="st0" cx="404.7" cy="2.4" r="2.4"/>
		<circle class="st0" cx="428.3" cy="97" r="2.4"/>
		<circle class="st0" cx="428.3" cy="73.4" r="2.4"/>
		<circle class="st0" cx="428.3" cy="49.7" r="2.4"/>
		<circle class="st0" cx="428.3" cy="26" r="2.4"/>
		<circle class="st0" cx="428.3" cy="2.4" r="2.4"/>
		<circle class="st0" cx="452" cy="97" r="2.4"/>
		<circle class="st0" cx="452" cy="73.4" r="2.4"/>
		<circle class="st0" cx="452" cy="49.7" r="2.4"/>
		<circle class="st0" cx="452" cy="26" r="2.4"/>
		<circle class="st0" cx="452" cy="2.4" r="2.4"/>
		<circle class="st0" cx="475.7" cy="97" r="2.4"/>
		<circle class="st0" cx="475.7" cy="73.4" r="2.4"/>
		<circle class="st0" cx="475.7" cy="49.7" r="2.4"/>
		<circle class="st0" cx="475.7" cy="26" r="2.4"/>
		<circle class="st0" cx="475.7" cy="2.4" r="2.4"/>
		<circle class="st0" cx="499.3" cy="97" r="2.4"/>
		<circle class="st0" cx="499.3" cy="73.4" r="2.4"/>
		<circle class="st0" cx="499.3" cy="49.7" r="2.4"/>
		<circle class="st0" cx="499.3" cy="26" r="2.4"/>
		<circle class="st0" cx="499.3" cy="2.4" r="2.4"/>
	</g>
</g>
</svg>
