<?xml version="1.0" encoding="utf-8"?>
<!-- Generator: Adobe Illustrator 25.3.1, SVG Export Plug-In . SVG Version: 6.00 Build 0)  -->
<svg version="1.1" id="Capa_1" xmlns="http://www.w3.org/2000/svg" xmlns:xlink="http://www.w3.org/1999/xlink" x="0px" y="0px"
	 viewBox="0 0 250 250" style="enable-background:new 0 0 250 250;" xml:space="preserve">
<style type="text/css">
	.st0{fill:none;}
	.st1{opacity:0.5;}
	.st2{opacity:0.5;enable-background:new    ;}
	.st3{opacity:0.5;fill:url(#SVGID_1_);enable-background:new    ;}
	.st4{opacity:0.5;fill:url(#SVGID_2_);enable-background:new    ;}
	.st5{opacity:0.5;fill:url(#SVGID_3_);enable-background:new    ;}
	.st6{opacity:0.5;fill:url(#SVGID_4_);enable-background:new    ;}
</style>
<pattern  y="250" width="9" height="6" patternUnits="userSpaceOnUse" id="Nueva_muestra_de_motivo_5" viewBox="1.4 -7.4 9 6" style="overflow:visible;">
	<g>
		<rect x="1.4" y="-7.4" class="st0" width="9" height="6"/>
		<g>
			<rect x="1.4" y="-7.4" class="st0" width="9" height="6"/>
			<circle cx="10.4" cy="-7.4" r="1.4"/>
			<circle cx="1.4" cy="-7.4" r="1.4"/>
			<circle cx="10.4" cy="-1.4" r="1.4"/>
			<circle cx="5.9" cy="-4.4" r="1.4"/>
			<circle cx="1.4" cy="-1.4" r="1.4"/>
		</g>
	</g>
</pattern>
<g class="st1">
	<rect x="102.8" y="115.6" width="1.5" height="1.8"/>
	<rect x="108.6" y="115.6" width="1.5" height="1.8"/>
	<rect x="120.4" y="115.6" width="1.5" height="1.8"/>
	<rect x="125.9" y="115.6" width="1.5" height="1.8"/>
	<rect x="131.8" y="115.6" width="1.5" height="1.8"/>
	<g>
		<polygon points="137.3,108.8 136.9,108.5 136.4,108.3 135.7,108 135.2,107.8 134.5,107.7 134,107.6 133.2,107.4 131.9,107.2 
			130.3,106.7 129.9,106.6 127.8,105.8 126.5,105.2 124.3,104.2 122.9,103.6 120.1,102.4 117.2,101 115.8,100.4 115.4,100.2 
			115.1,100.1 114.8,100 114.6,100.1 114.5,100.1 114.3,100.3 113.6,100.8 112.5,101.7 111.3,102.7 110.9,103 110.1,103.6 
			109.3,104.1 108.3,104.4 107.5,104.6 106.4,104.6 105.6,104.6 104.3,104.2 103.6,103.8 102.7,103.2 102.1,102.6 101.5,102 
			101,101.8 100.5,101.8 99.9,102 99.7,102.1 99.5,102.4 99.3,102.7 99.2,103.1 99.1,103.7 99,105.1 98.8,106.7 98.6,108.4 
			98.4,109.7 98.3,110.6 98.2,111.1 98.2,111.8 98.2,112.2 98.2,112.7 98.4,113.3 98.6,113.7 98.8,114 99,114.4 99.5,114.8 
			99.8,115.1 100.3,115.3 100.8,115.5 101.3,115.6 101.8,115.7 105.7,115.7 108.7,115.7 119.1,105.3 121.9,106.3 112.5,115.7 
			117.2,115.7 125.5,107.4 128.1,108.2 120.6,115.7 134.8,115.7 135.3,115.7 136,115.6 136.6,115.4 137.3,115 137.6,114.7 
			138,114.3 138.3,113.9 138.6,113.3 138.8,112.6 138.9,112.2 138.9,111.8 138.8,111.5 138.7,111 138.6,110.6 138.4,110.1 
			138.1,109.7 137.7,109.2 		"/>
	</g>
	<g>
		<path d="M120,104.2l8.5,3.6l-5,6.8h-13.8L120,104.2 M119.7,102.9l-12.8,12.8h17.2l6.3-8.4L119.7,102.9L119.7,102.9z"/>
	</g>
</g>
<g class="st1">
	<path d="M118.3,50.1c-8.2-1.4-16,4.2-17.3,12.4c-0.7,4,0.2,7.9,2.6,11.2c2.4,3.3,5.8,5.5,9.8,6.1c0.8,0.1,1.6,0.2,2.4,0.2
		c3.1,0,6.1-1,8.8-2.8c3.3-2.4,5.5-5.8,6.1-9.8C132.1,59.2,126.5,51.4,118.3,50.1z M126,65.6l2.1,5.1c-0.6,1.3-1.5,2.6-2.5,3.6h-4.2
		c-0.5,0-1,0.3-1.3,0.7l-1.9,3.3c-1.5,0.3-3,0.3-4.6,0.1c0,0,0,0,0,0l-2-3.4c-0.3-0.4-0.8-0.7-1.3-0.7h-4.4c-1-1.1-1.9-2.3-2.5-3.6
		l2.1-5.1c0.1-0.3,0.1-0.7,0-1.1l-2.1-5.2c0.6-1.3,1.4-2.6,2.4-3.6h4.5c0.5,0,1-0.3,1.3-0.7l2-3.5c1.4-0.2,2.8-0.2,4.3,0
		c0.1,0,0.1,0,0.2,0l2,3.5c0.3,0.4,0.8,0.7,1.3,0.7h4.3c1,1.1,1.8,2.3,2.4,3.6l-2.1,5.2C125.9,64.9,125.9,65.3,126,65.6z"/>
	<path d="M118.4,61c-0.1-0.2-0.3-0.3-0.5-0.3h-4.3c-0.2,0-0.4,0.1-0.5,0.3l-2.1,3.7c-0.1,0.2-0.1,0.4,0,0.6l2.1,3.7
		c0.1,0.2,0.3,0.3,0.5,0.3h4.3c0.2,0,0.4-0.1,0.5-0.3l2.1-3.7c0.1-0.2,0.1-0.4,0-0.6L118.4,61z"/>
</g>
<g class="st1">
	<g>
		<g>
			<path d="M62.1,206.4c0.5,0.9,2,3.6,4.2,3.9v19.5h-8.1v-23.4H62.1 M62.4,205.9h-4.6v24.3h9v-20.4h-0.1
				C64.2,209.9,62.4,205.9,62.4,205.9L62.4,205.9z"/>
		</g>
		<polygon points="62.8,230.2 61.9,230.2 61.9,205.9 62.8,207.2 		"/>
		<rect x="59.5" y="205.9" width="0.9" height="24.3"/>
		<polygon points="65,230.2 64.1,230.2 64.1,208.9 65,209.5 		"/>
		<polygon points="57.8,214.2 57.8,205.9 49.4,213.6 53.6,218.1 		"/>
	</g>
	<g>
		<g>
			<path d="M75.3,206.4v23.4h-8.1v-19.5c2.2-0.3,3.8-3,4.2-3.9H75.3 M75.7,205.9h-4.6c0,0-1.8,3.9-4.3,3.9h-0.1v20.4h9V205.9
				L75.7,205.9L75.7,205.9z"/>
		</g>
		<polygon points="71.6,230.2 70.7,230.2 70.7,207.2 71.6,205.9 		"/>
		<rect x="73.2" y="205.9" width="0.9" height="24.3"/>
		<polygon points="69.4,230.2 68.5,230.2 68.5,209.5 69.4,208.9 		"/>
		<polygon points="75.7,214.2 75.7,205.9 84.1,213.6 79.9,218.1 		"/>
	</g>
</g>
<g class="st1">
	<polygon points="132.5,203.6 136.9,199.5 136.9,190.6 128,198.8 	"/>
	<polygon points="156.1,190.6 156.1,199.5 160.6,203.6 165.1,198.8 	"/>
	<g>
		<path d="M146.4,201.4c-0.6,0-1,0.5-1,1.4c0,0.6,0.3,1.3,1.1,1.3c0.5,0,0.8-0.2,1-0.4c0.1-0.1,0.1-0.3,0.1-0.6
			C147.5,202.2,147.2,201.4,146.4,201.4z"/>
		<path d="M151.2,190.6c0,0-2,2.9-4.7,2.8c-2.7,0.1-4.7-2.8-4.7-2.8h-4.9v25.9h9.6h9.6v-25.9H151.2z M148.5,207.8
			c-1,0.9-2.3,1.3-3.9,1.3c-0.3,0-0.7,0-0.9,0v-2c0.3,0,0.5,0,0.9,0c0.6,0,1.3-0.2,1.8-0.4c0.6-0.3,1-0.9,1.2-1.4l0,0
			c-0.4,0.3-0.9,0.5-1.7,0.5c-1.5,0-3-1-3-2.9s1.5-3.4,3.7-3.4c2.6,0,3.7,2,3.7,4.1C150.2,205.5,149.6,206.9,148.5,207.8z"/>
	</g>
</g>
<g class="st1">
	<polygon points="189.4,169.7 187,169.7 187,145.9 140.9,145.9 140.9,169.7 138.5,169.7 138.5,143.4 189.4,143.4 	"/>
	<polygon points="181.7,167.5 180.7,167.5 180.7,150.2 147.2,150.2 147.2,167.5 146.2,167.5 146.2,149.1 181.7,149.1 	"/>
	<rect x="142.7" y="142.9" transform="matrix(0.5816 -0.8135 0.8135 0.5816 -59.7994 178.113)" width="1" height="8.6"/>
	<rect x="180.4" y="146.6" transform="matrix(0.8133 -0.5819 0.5819 0.8133 -51.12 134.9317)" width="8.6" height="1"/>
	<path d="M151.2,166.4l-4.6-8.5l4.6-8.5l4.6,8.5L151.2,166.4z M147.5,157.9l3.8,7l3.8-7l-3.8-7L147.5,157.9z"/>
	<path d="M159.8,166.4l-4.6-8.5l4.6-8.5l4.6,8.5L159.8,166.4z M156,157.9l3.8,7l3.8-7l-3.8-7L156,157.9z"/>
	<path d="M168.2,166.4l-4.6-8.5l4.6-8.5l4.6,8.5L168.2,166.4z M164.4,157.9l3.8,7l3.8-7l-3.8-7L164.4,157.9z"/>
	<path d="M176.5,166.4l-4.6-8.5l4.6-8.5l4.6,8.5L176.5,166.4z M172.7,157.9l3.8,7l3.8-7l-3.8-7L172.7,157.9z"/>
</g>
<g class="st1">
	<rect x="224.6" y="48.8" width="0.9" height="18.3"/>
	<path d="M226.7,58.4v-9.6c0,0,4.9-2.4,8.7,1.9c0,0,3.9,0.9,6.2-0.9v9.4c0,0-5.6,2.4-7.4-0.5C234.1,58.7,230.3,55.7,226.7,58.4z"/>
</g>
<g class="st1">
	<path d="M94.6,27.3c-4.6,0-8.4-3.8-8.4-8.4s3.8-8.4,8.4-8.4s8.4,3.8,8.4,8.4S99.2,27.3,94.6,27.3z M94.6,11.6c-4,0-7.3,3.3-7.3,7.3
		s3.3,7.3,7.3,7.3s7.3-3.3,7.3-7.3S98.6,11.6,94.6,11.6z"/>
	<rect x="92.6" y="8.8" width="4" height="1"/>
	<rect x="94.1" y="9.3" width="1" height="1.7"/>
	<path d="M100.9,18.9h-6.3v-6.3C98.1,12.6,100.9,15.4,100.9,18.9z"/>
	<polyline points="99.1,12.5 100.4,11.2 101.4,12.2 100.2,13.4 	"/>
</g>
<g class="st1">
	<path d="M57.7,100.8c0.1-0.1,0.2-0.2,0.2-0.4l0.1-2.7c0-0.1,0-0.3-0.1-0.4s-0.2-0.2-0.4-0.2L50,96.9v3.8l7.3,0.2
		C57.5,100.9,57.6,100.9,57.7,100.8z M56.1,99.9c-0.6,0.1-1.2-0.2-1.3-0.8c-0.1-0.6,0.2-1.2,0.8-1.3s1.2,0.2,1.3,0.8
		C57.1,99.2,56.7,99.8,56.1,99.9z"/>
	<path d="M70.8,83L70,82.3c-0.8-0.6-1.9-0.6-2.6,0.2l-1.7,2c-0.2,0.2-0.4,0.1-0.4-0.2L65.6,72c0-0.2,0-0.3-0.1-0.5
		c-0.2-0.8-0.9-1.4-1.7-1.4c-1,0-1.8,0.8-1.9,1.8l-0.2,8.3c-0.4,0.1-0.6-0.1-0.6-0.4l0.2-9.7c0-0.2,0-0.3-0.1-0.5
		c-0.2-0.8-0.9-1.4-1.8-1.4c-1,0-1.8,0.9-1.8,1.9l0,8.9c-0.1,0.1-0.5,0.3-0.7,0l0.2-7.9c0-0.2,0-0.3-0.1-0.5
		c-0.2-0.8-0.9-1.4-1.7-1.4c-1,0-1.8,0.8-1.9,1.8l-0.2,8.7c-0.2,0.1-0.5,0.3-0.8,0l0.1-5.5c0-0.2,0-0.3-0.1-0.5
		c-0.2-0.8-0.9-1.4-1.8-1.4c-1,0-1.8,0.9-1.8,1.9l-0.3,11.7l0,0c-0.2,1.1-0.2,2.3,0.1,3.5c0,0.2,0.1,0.3,0.1,0.5l0.1,0.2
		c0.1,0.4,0.3,1.4,0.8,2.5l1.1,2.2l0,0c-0.5,0.2-0.9,0.6-0.9,1.2l7.4,0.2c0.3,0,0.7,0.2,0.9,0.4c0.2,0.3,0.4,0.6,0.4,0.9l-0.1,2.7
		c0,0.3-0.2,0.7-0.4,0.9c-0.2,0.2-0.4,0.3-0.6,0.3c-0.1,0-0.2,0-0.3,0l-7.2-0.2c0.2,0.6,0.7,1.1,1.4,1.1h10.1c0.8,0,1.5-0.7,1.5-1.5
		V96c0-0.4-0.1-0.7-0.4-1l0,0l1-1.1c0.1-0.1,0.1-0.1,0.2-0.2l0.5-0.6l0,0l6.6-7.9C71.7,84.8,71.6,83.6,70.8,83z M58.6,92.8
		c-3,0.7-6-1.1-6.7-4.1s1.1-6,4.1-6.7s6,1.1,6.7,4.1C63.4,89.2,61.6,92.1,58.6,92.8z"/>
</g>
<g class="st1">
	<g>
		<path d="M210.6,203.6l2.5,13.4l-9.6,1.8l-2.5-13.4L210.6,203.6 M211.2,202.4C211.2,202.4,211.1,202.4,211.2,202.4l-11,2
			c-0.2,0-0.3,0.2-0.3,0.4l2.7,14.8c0,0.2,0.2,0.3,0.3,0.3h0.1l11-2c0.2,0,0.3-0.2,0.3-0.4l-2.7-14.8
			C211.5,202.6,211.4,202.4,211.2,202.4L211.2,202.4z"/>
	</g>
	<path d="M222.5,202.7l-3.4,13.9c-0.1,0.4-0.5,0.6-0.9,0.5l-3.2-0.8l-2.7-14.6c-0.1-0.4-0.4-0.6-0.8-0.6l-0.9,0.2l0.4-1.5
		c0.1-0.4,0.5-0.6,0.9-0.5l10.1,2.5C222.3,201.9,222.6,202.3,222.5,202.7z"/>
</g>
<g class="st1">
	<g>
		<rect x="196.1" y="97.8" transform="matrix(0.7145 -0.6997 0.6997 0.7145 -18.9185 168.3173)" width="1.3" height="19.1"/>
		<path d="M206.3,111.2l-13.2-13.5c-0.3-0.3-0.3-0.7,0-0.9l1.4-1.4c0.1-0.1,0.3-0.2,0.5-0.2h14.9v1.3h-14.6l-0.8,0.8l12.8,13
			L206.3,111.2z"/>
		<rect x="196.7" y="99.7" width="13.1" height="1.3"/>
	</g>
	<g>
		<rect x="213.3" y="106.7" transform="matrix(0.6999 -0.7142 0.7142 0.6999 -9.815 191.3934)" width="19.1" height="1.3"/>
		<path d="M213.3,111.2l-1-0.9l12.8-13l-0.8-0.8h-14.6v-1.3h14.9c0.2,0,0.4,0.1,0.5,0.2l1.4,1.4c0.3,0.3,0.3,0.7,0,0.9L213.3,111.2z
			"/>
		<rect x="209.8" y="99.7" width="13.1" height="1.3"/>
	</g>
	<path d="M209.8,109.3c-4.2,0-7.7,3.5-7.7,7.8s3.4,7.8,7.7,7.8s7.7-3.5,7.7-7.8S214.1,109.3,209.8,109.3z M211.2,121.7H209v-6.5l0,0
		l-1.7,0.8l-0.4-1.8l2.4-1.1h1.9V121.7L211.2,121.7L211.2,121.7z"/>
</g>
<g class="st1">
	<path d="M2.8,128c-1.4,0-2.5-1.1-2.5-2.5s1.1-2.5,2.5-2.5s2.5,1.1,2.5,2.5S4.2,128,2.8,128z M2.8,123.9c-0.9,0-1.6,0.7-1.6,1.6
		s0.7,1.6,1.6,1.6s1.6-0.7,1.6-1.6C4.4,124.7,3.7,123.9,2.8,123.9z"/>
	<path d="M14,137.2c-1.4,0-2.5-1.1-2.5-2.5s1.1-2.5,2.5-2.5s2.5,1.1,2.5,2.5S15.4,137.2,14,137.2z M14,133.1c-0.9,0-1.6,0.7-1.6,1.6
		s0.7,1.6,1.6,1.6s1.6-0.7,1.6-1.6S14.9,133.1,14,133.1z"/>
	<path d="M6.2,137.5c-0.1,0-0.2,0-0.2-0.1c-0.2-0.1-0.3-0.4-0.2-0.6l4.2-7.3l-1.3,0.4c-0.2,0.1-0.5-0.1-0.5-0.3
		c-0.1-0.2,0.1-0.5,0.3-0.5l2.4-0.7c0.2-0.1,0.4,0,0.5,0.1s0.1,0.3,0,0.5l-4.8,8.3C6.5,137.4,6.4,137.5,6.2,137.5z"/>
	<path d="M11.7,131.1c-0.2,0-0.4-0.1-0.4-0.3l-0.7-1.9c-0.1-0.2,0-0.5,0.3-0.6c0.2-0.1,0.5,0,0.6,0.3l0.7,1.9c0.1,0.2,0,0.5-0.3,0.6
		C11.8,131.1,11.8,131.1,11.7,131.1z"/>
	<path d="M4.1,134.1c-0.1,0-0.3-0.1-0.4-0.2c-0.1-0.2-0.1-0.5,0.1-0.6l0.8-0.5c-2-1.6-1.9-4-1.9-4.2s0.2-0.4,0.5-0.4
		c0.2,0,0.4,0.2,0.4,0.5c0,0.1-0.1,2.4,2,3.8c0.1,0.1,0.2,0.2,0.2,0.4s-0.1,0.3-0.2,0.4L4.1,134.1C4.2,134.1,4.2,134.1,4.1,134.1z"
		/>
	<path d="M5.4,133.3L5.4,133.3c-0.3,0-0.5-0.3-0.4-0.5l0.3-1.7c0-0.2,0.3-0.4,0.5-0.4s0.4,0.3,0.4,0.5L5.9,133
		C5.8,133.2,5.7,133.3,5.4,133.3z"/>
	<path d="M15,126.6c-0.1,0-0.2,0-0.3-0.1l-2.7-2.6c-0.2-0.2-0.2-0.4,0-0.6s0.4-0.2,0.6,0l2.7,2.6c0.2,0.2,0.2,0.4,0,0.6
		C15.2,126.5,15.1,126.6,15,126.6z"/>
	<path d="M12.3,126.6c-0.1,0-0.2,0-0.3-0.1c-0.2-0.1-0.2-0.4-0.1-0.6l2.3-2.9c0.1-0.2,0.4-0.2,0.6-0.1c0.2,0.1,0.2,0.4,0.1,0.6
		l-2.3,2.9C12.6,126.5,12.5,126.6,12.3,126.6z"/>
	<path d="M20.5,145.5H-4.4V115h8.2v1.9h8.3V115h8.4V145.5z M-3.3,144.3h22.6v-28.2h-6.1v1.9H2.6v-1.9h-5.9
		C-3.3,116.1-3.3,144.3-3.3,144.3z"/>
	<path d="M10.9,116.2H5.2c-0.4,0-0.7-0.3-0.7-0.7v-0.6c0-0.4,0.3-0.7,0.7-0.7h5.7c0.4,0,0.7,0.3,0.7,0.7v0.6
		C11.6,115.8,11.3,116.2,10.9,116.2z"/>
</g>
<g class="st1">
	<path d="M250,116.1V115h-4.4v30.5h4.4v-1.2h-3.3v-28.2H250z"/>
</g>
<g class="st1">
	<path d="M84.2,159.1c-0.3,0-0.7,0-1.1-0.1s-0.7-0.5-0.6-0.9s0.5-0.7,0.9-0.6c0.7,0.2,1.3,0.1,1.7-0.2c0.4-0.3,0.7-0.7,0.8-1
		l-1.7-2.2c-8.7-1.9-11-8.3-11.1-8.6v-0.1v-7h7.4c0.4,0,0.8,0.4,0.8,0.8s-0.4,0.8-0.8,0.8h-5.8v5.2c0.3,0.9,2.6,6,10.2,7.5l0.3,0.1
		l2.5,3.3l-0.1,0.3c0,0.2-0.3,1.5-1.6,2.3C85.5,159,84.9,159.1,84.2,159.1z"/>
	<g>
		<path d="M101.6,138.1c0.1,3.3-0.4,12.2-8.3,19.4l-0.3,0.3l-0.1,0.4c-0.1,0.2-1.4,4.3,1,7c0.4,0.6,2.2,2.6,5.3,2.8v1.2h1.6h0.8
			v12.6v1.6h1.6l0,0v1.9H91.9H80.6v-1.9l0,0h1.6v-1.6v-12.6H83h1.6V168c3.1-0.2,4.9-2.3,5.3-2.8c2.4-2.6,1.1-6.8,1-7l-0.1-0.4
			l-0.3-0.3c-8-7.2-8.4-16.1-8.3-19.4h9.7H101.6 M103.1,136.5H91.9H80.7c0,0-1.9,12.5,8.7,22.2c0,0,1.1,3.5-0.8,5.4
			c0,0-1.4,2.2-4.5,2.3c0,0-1.1,0.1-1.1,1.1h-2.4v14.1H79v5.1h12.9h12.9v-5.1h-1.6v-14.1h-2.4c0-1-1.1-1.1-1.1-1.1
			c-3.1-0.1-4.5-2.3-4.5-2.3c-1.9-2-0.8-5.4-0.8-5.4C105,149.1,103.1,136.5,103.1,136.5L103.1,136.5z"/>
	</g>
	<path d="M99.6,159.1c-0.7,0-1.3-0.2-1.9-0.5c-1.2-0.8-1.6-2.2-1.6-2.3L96,156l2.5-3.3l0.3-0.1c7.5-1.5,9.8-6.7,10.2-7.5v-5.2h-5.8
		c-0.4,0-0.8-0.4-0.8-0.8s0.4-0.8,0.8-0.8h7.4v7v0.1c-0.1,0.3-2.4,6.7-11.1,8.6l-1.7,2.2c0.1,0.3,0.4,0.8,0.8,1
		c0.4,0.3,1,0.3,1.7,0.2c0.4-0.1,0.9,0.2,0.9,0.6s-0.2,0.9-0.6,0.9C100.3,159.1,99.9,159.1,99.6,159.1z"/>
	<g>
		<path d="M97.1,172.9v6.7H86.8v-6.7H97.1 M98.6,171.3H85.2v9.8h13.5L98.6,171.3L98.6,171.3z"/>
	</g>
</g>
<g class="st1">
	<path d="M176.3,52.4c0,0,0,2.9-1.8,4.1c0,0-1.3,1.4-2.5,1.3l-3.1-0.8c0,0-0.8-0.4-1.7,0.3l-2.6,2.1l-3.6-1.5l-0.9-2l4,1.5l7.2-7
		c1.5-1.7,3-1.2,3.1-1.2l0,0C174.4,49.2,176.2,50.3,176.3,52.4z"/>
	<g>
		<path d="M170.5,48.7L170.5,48.7c0.7,0,1.3,0.1,1.9,0.3c-0.5,0.2-1,0.6-1.5,1.1l-7,6.7l-3.1-1.2l7-6.5
			C168.2,49.1,169.2,48.7,170.5,48.7 M170.5,48.3c-1.7,0-2.9,0.5-2.9,0.5l-7.6,7.1l4,1.5l7.2-7c0.9-1,1.8-1.3,2.4-1.3
			c0.4,0,0.6,0.1,0.7,0.1C173,48.5,171.6,48.3,170.5,48.3L170.5,48.3z"/>
	</g>
	<polygon points="170.6,51.1 166.4,50 165,51.3 169,52.6 	"/>
</g>
<g class="st1">
	<path d="M250,169.1c-0.7-0.4-1.5-0.6-2.4-0.7c-1-2.2-3.3-3.8-5.9-3.8c-2.5,0-4.7,1.4-5.8,3.6c-2.6,0.5-4.5,2.6-4.5,5.3
		c0,1.5,0.6,2.9,1.6,4c0.3,0.4,0.7,0.6,1.1,0.9v14.3c-1,0.2-1.7,1.1-1.7,2.1c0,1.2,0.9,2.1,2.1,2.1H250v-1.7h-15.4
		c-0.3,0-0.5-0.2-0.5-0.5s0.2-0.5,0.5-0.5h0.2v0.1h9.3v-1.6h-8.4v-13.6c0.4,0.1,0.8,0.1,1.2,0.1c1.9,0,3.6-0.9,4.6-2.4
		c0.1,0.1,0.2,0.4,0.2,0.7v3.4c0,0.5,0.1,0.9,0.5,1.3c0.3,0.4,0.8,0.6,1.3,0.6c1,0,1.8-0.9,1.8-1.8v-2.5c0.7,0.4,1.5,0.5,2.3,0.5
		c0.8,0,1.5-0.2,2.2-0.6v14.3h-3v1.6h3.2v-18c-0.7,0.6-1.5,1-2.4,1c-0.9,0-1.8-0.3-2.5-0.9c-0.2-0.2-0.5-0.2-0.8-0.1
		c-0.3,0.1-0.5,0.4-0.5,0.7v3.9c0,0.2-0.1,0.3-0.3,0.3c-0.1,0-0.2-0.1-0.2-0.1s-0.1-0.1-0.1-0.2v-3.5c0-1.7-1.3-2.4-1.9-2.5
		c-0.3-0.1-0.7,0.1-0.8,0.4c-0.7,1.4-2.1,2.3-3.6,2.3c-1,0-2-0.4-2.8-1.2c-0.7-0.7-1.1-1.7-1.1-2.8c0-2.1,1.7-3.8,3.8-3.9
		c1.2-0.1,2.4,0.4,3.2,1.4c0.3,0.3,0.8,0.4,1.1,0.1c0.3-0.3,0.4-0.8,0.1-1.1c-0.9-1.1-2.2-1.7-3.5-1.9c0.9-1.2,2.3-2,3.9-2
		c2,0,3.8,1.2,4.5,3c0,0,0,0.1,0,0.1c0,0.2,0.1,0.3,0.2,0.4c0.1,0.5,0.2,0.9,0.2,1.4c0,0.7-0.2,1.4-0.5,2.1c-0.2,0.4,0,0.8,0.4,1
		c0.1,0.1,0.2,0.1,0.3,0.1c0.3,0,0.6-0.2,0.9-0.5c0.4-0.8,0.6-1.7,0.6-2.7c0-0.3,0-0.7-0.1-1c0.7,0.1,1.4,0.5,1.9,0.9V169.1z"/>
	<path d="M241.2,190.2h-1.3v-9.5c0-0.2-0.2-0.4-0.4-0.4s-0.4,0.2-0.4,0.4v9.9c0,0.2,0.2,0.4,0.4,0.4h1.7c0.2,0,0.4-0.2,0.4-0.4
		C241.6,190.4,241.4,190.2,241.2,190.2z"/>
	<rect x="244.6" y="190.2" width="1.1" height="0.8"/>
</g>
<path class="st1" d="M2.9,175.5H2.4c0.2-0.5,0.3-1.1,0.3-1.7c0-1.5-0.5-2.8-1.5-3.8c-0.4-0.4-0.8-0.7-1.2-0.9v1.9
	c0,0,0.1,0.1,0.1,0.1c0.7,0.7,1.1,1.6,1.1,2.6c0,1-0.5,1.9-1.2,2.5v18h0.4v-0.1h0.4c0.3,0,0.5,0.2,0.5,0.5s-0.2,0.5-0.5,0.5H0v1.7
	h0.8c1.2,0,2.1-0.9,2.2-2.1c0-1-0.7-1.9-1.7-2.1h1.6c2,0,3.6-1.6,3.6-3.6v-10C6.5,177.1,4.9,175.5,2.9,175.5z M1.3,178.6l1.2,0.1
	c0.4,0,0.6,0.3,0.6,0.6v9.4c0,0.4-0.3,0.6-0.6,0.6H1.3V178.6z M5,189.1c0,1.1-0.9,2-2,2H1.3v-0.8h1.2c0.8,0,1.4-0.6,1.4-1.4v-9.4
	c0-0.9-0.6-1.5-1.4-1.5H1.3v-0.7c0.1-0.1,0.1-0.1,0.2-0.2H3c1.1,0,2,0.9,2,2V189.1z"/>
<g class="st1">
	<path d="M27.8,0h-2.3c0,0.1,0.1,0.1,0.1,0.2c0.7,1,1.3,2.1,1.9,3.2l-3,7.1c-0.2,0.5-0.2,1.1,0,1.5l2.9,7c-0.8,1.9-2,3.6-3.4,5.1
		h-5.9c-0.7,0-1.4,0.4-1.7,1l-2.6,4.6c-2.1,0.4-4.3,0.5-6.5,0.1l-2.7-4.7c-0.3-0.6-1-1-1.7-1H0v5.1c2.1,1.2,4.5,2.1,7,2.5
		c1.2,0.2,2.3,0.3,3.4,0.3c4.3,0,8.5-1.3,12.1-3.9C27,24.8,30,20,30.9,14.6C31.7,9.5,30.6,4.3,27.8,0z"/>
	<path d="M14,16.9l3-5.2c0.1-0.2,0.1-0.5,0-0.8l-3-5.2c-0.2-0.2-0.4-0.4-0.7-0.4h-6C7,5.3,6.8,5.4,6.6,5.7l-3,5.2
		c-0.1,0.2-0.1,0.5,0,0.8l3,5.2c0.1,0.2,0.4,0.4,0.7,0.4h6C13.6,17.3,13.8,17.2,14,16.9z"/>
</g>
<path class="st1" d="M246.7,24.1c-1.4-1.4-2.5-3.1-3.4-4.9l3-7.2c0.2-0.4,0.2-1,0-1.5l-3-7.2c0.5-1.2,1.2-2.3,2-3.3h-2.4
	c-1.5,2.3-2.5,5-3,7.9c-1.4,8.7,2.9,17.1,10.1,21.3v-5.1H246.7z"/>
<path class="st1" d="M242.8,250h2.4c0.4-0.6,0.9-1.2,1.4-1.7h3.3v-5.1C247.1,244.8,244.7,247.2,242.8,250z"/>
<path class="st1" d="M27.2,249c-3.2-4.5-8-7.5-13.5-8.4c-4.8-0.7-9.6,0.2-13.7,2.6v5.1h2.9c0.7,0,1.4-0.4,1.7-1l2.7-4.6
	c1-0.2,2-0.2,3-0.2c1,0,2,0.1,3,0.3c0.2,0,0.4,0.1,0.6,0.1l2.6,4.5c0.3,0.6,1,1,1.7,1h5.7c0.5,0.5,1,1.1,1.5,1.7h2.5
	C27.7,249.7,27.4,249.3,27.2,249z"/>
<g class="st1">
	<g>
		<path d="M47.4,31.2l2.5,13.4l-9.6,1.8L37.8,33L47.4,31.2 M48,30C47.9,30,47.9,30,48,30l-11,2c-0.2,0-0.3,0.2-0.3,0.4l2.7,14.8
			c0,0.2,0.2,0.3,0.3,0.3h0.1l11-2c0.2,0,0.3-0.2,0.3-0.4l-2.7-14.8C48.3,30.2,48.1,30,48,30L48,30z"/>
	</g>
	<path d="M59.2,30.3l-3.4,13.9c-0.1,0.4-0.5,0.6-0.9,0.5l-3.2-0.8L49,29.3c-0.1-0.4-0.4-0.6-0.8-0.6l-0.9,0.2l0.4-1.5
		c0.1-0.4,0.5-0.6,0.9-0.5l10.1,2.5C59.1,29.5,59.3,29.9,59.2,30.3z"/>
</g>
<polygon class="st2" points="11.5,80.2 3.7,85.9 6.7,95.1 16.4,95.1 19.4,85.9 "/>
<circle class="st2" cx="31.8" cy="228.8" r="8.9"/>
<g class="st1">
	<rect x="23.1" y="185.7" width="0.9" height="18.3"/>
	<path d="M25.2,195.3v-9.6c0,0,4.9-2.4,8.7,1.9c0,0,3.9,0.9,6.2-0.9v9.4c0,0-5.6,2.4-7.4-0.5C32.6,195.6,28.8,192.5,25.2,195.3z"/>
</g>
<polygon class="st2" points="50,127 43.9,131.5 46.2,138.7 53.8,138.7 56.2,131.5 "/>
<polygon class="st2" points="225.2,14.5 219,19 221.4,26.2 229,26.2 231.3,19 "/>
<pattern  id="SVGID_1_" xlink:href="#Nueva_muestra_de_motivo_5" patternTransform="matrix(1 0 0 -1 -118.4 -16771.1992)">
</pattern>
<circle class="st3" cx="166.7" cy="107.3" r="20.1"/>
<path class="st2" d="M182,82.6c-2.5,0-4.6-2.1-4.6-4.6s2.1-4.6,4.6-4.6s4.6,2.1,4.6,4.6S184.5,82.6,182,82.6z M182,74.9
	c-1.7,0-3.1,1.4-3.1,3.1s1.4,3.1,3.1,3.1s3.1-1.4,3.1-3.1S183.7,74.9,182,74.9z"/>
<g class="st1">
	<path d="M187.7,73.8c-0.2,0-0.4-0.1-0.5-0.2c-0.3-0.3-0.3-0.8,0-1.1l20.3-20.3c0.2-0.2,0.5-0.3,0.8-0.2s0.5,0.4,0.5,0.7v4.2
		c0,0.4-0.3,0.8-0.8,0.8s-0.8-0.3-0.8-0.8v-2.3l-19,19C188.1,73.7,187.9,73.8,187.7,73.8z"/>
	<path d="M208,53.5h-4.8c-0.4,0-0.8-0.3-0.8-0.8s0.3-0.8,0.8-0.8h4.8c0.4,0,0.8,0.3,0.8,0.8S208.4,53.5,208,53.5z"/>
</g>
<path class="st2" d="M212.6,51.6c-2.5,0-4.6-2.1-4.6-4.6s2.1-4.6,4.6-4.6s4.6,2.1,4.6,4.6S215.1,51.6,212.6,51.6z M212.6,43.9
	c-1.7,0-3.1,1.4-3.1,3.1c0,1.7,1.4,3.1,3.1,3.1s3.1-1.4,3.1-3.1C215.7,45.3,214.3,43.9,212.6,43.9z"/>
<pattern  id="SVGID_2_" xlink:href="#Nueva_muestra_de_motivo_5" patternTransform="matrix(1 0 0 -1 -118.4 -16771.1992)">
</pattern>
<polygon class="st4" points="78.6,36.8 64.1,47.3 69.6,64.3 87.5,64.3 93.1,47.3 "/>
<path class="st2" d="M64.6,181.3c-2.5,0-4.6-2.1-4.6-4.6s2.1-4.6,4.6-4.6s4.6,2.1,4.6,4.6S67.1,181.3,64.6,181.3z M64.6,173.6
	c-1.7,0-3.1,1.4-3.1,3.1s1.4,3.1,3.1,3.1s3.1-1.4,3.1-3.1S66.3,173.6,64.6,173.6z"/>
<g class="st1">
	<g>
		<path d="M55.1,177.6c-0.4,0-0.7-0.3-0.7-0.7s0.3-0.8,0.7-0.8c0.7,0,1.2-0.1,1.2-0.1c0.4-0.1,0.8,0.2,0.8,0.6
			c0.1,0.4-0.2,0.8-0.6,0.8C56.4,177.5,55.9,177.5,55.1,177.6L55.1,177.6z"/>
		<path d="M52.5,177.6L52.5,177.6c-0.9,0-1.8-0.1-2.6-0.2c-0.4,0-0.7-0.4-0.7-0.8c0-0.4,0.4-0.7,0.8-0.7c0.8,0.1,1.7,0.1,2.5,0.2
			c0.4,0,0.7,0.4,0.7,0.8C53.3,177.3,52.9,177.6,52.5,177.6z M47.4,177.1L47.4,177.1c-1-0.2-1.8-0.3-2.7-0.6
			c-0.4-0.1-0.6-0.5-0.5-0.9s0.5-0.6,0.9-0.5c0.8,0.2,1.6,0.4,2.4,0.5c0.4,0.1,0.7,0.5,0.6,0.9C48.1,176.9,47.8,177.1,47.4,177.1z
			 M42.5,175.8c-0.1,0-0.2,0-0.3,0c-0.8-0.3-1.7-0.6-2.4-1c-0.4-0.2-0.5-0.6-0.4-1c0.2-0.4,0.6-0.5,1-0.4c0.7,0.3,1.5,0.7,2.3,0.9
			c0.4,0.1,0.6,0.6,0.5,1C43.1,175.6,42.8,175.8,42.5,175.8z M37.9,173.6c-0.1,0-0.3,0-0.4-0.1c-0.8-0.5-1.5-1-2.2-1.5
			c-0.3-0.3-0.4-0.7-0.1-1.1c0.3-0.3,0.7-0.4,1.1-0.1c0.6,0.5,1.3,1,2,1.4c0.4,0.2,0.5,0.7,0.3,1C38.4,173.5,38.1,173.6,37.9,173.6z
			 M33.8,170.5c-0.2,0-0.4-0.1-0.5-0.2c-0.6-0.6-1.2-1.3-1.8-1.9c-0.3-0.3-0.2-0.8,0.1-1.1c0.3-0.3,0.8-0.2,1.1,0.1
			c0.5,0.6,1.1,1.2,1.7,1.8c0.3,0.3,0.3,0.8,0,1.1C34.2,170.5,34,170.5,33.8,170.5z M30.6,166.6c-0.2,0-0.5-0.1-0.6-0.3
			c-0.5-0.7-0.9-1.5-1.3-2.3c-0.2-0.4,0-0.8,0.3-1c0.4-0.2,0.8,0,1,0.3c0.4,0.7,0.8,1.5,1.2,2.1c0.2,0.3,0.1,0.8-0.2,1
			C30.9,166.6,30.7,166.6,30.6,166.6z M28.2,162.1c-0.3,0-0.6-0.2-0.7-0.5c-0.3-0.8-0.6-1.6-0.9-2.5c-0.1-0.4,0.1-0.8,0.5-0.9
			c0.4-0.1,0.8,0.1,0.9,0.5c0.2,0.8,0.5,1.6,0.8,2.3c0.2,0.4,0,0.8-0.4,1C28.4,162.1,28.3,162.1,28.2,162.1z M26.7,157.2
			c-0.3,0-0.7-0.2-0.7-0.6c-0.2-0.8-0.3-1.7-0.5-2.6c-0.1-0.4,0.2-0.8,0.6-0.9c0.4-0.1,0.8,0.2,0.9,0.6c0.1,0.8,0.3,1.7,0.5,2.5
			c0.1,0.4-0.2,0.8-0.6,0.9C26.8,157.2,26.8,157.2,26.7,157.2z"/>
		<path d="M25.9,152.1c-0.4,0-0.7-0.3-0.7-0.7s-0.1-0.8-0.1-1.3c0-0.4,0.3-0.8,0.7-0.8c0.4,0,0.8,0.3,0.8,0.7s0.1,0.8,0.1,1.2
			C26.7,151.7,26.4,152.1,25.9,152.1C26,152.1,25.9,152.1,25.9,152.1z"/>
	</g>
	<path d="M30.4,154.7c-0.2,0-0.3-0.1-0.5-0.2l-4.1-3.4l-3.9,3.4c-0.3,0.3-0.8,0.2-1.1-0.1c-0.3-0.3-0.2-0.8,0.1-1.1l4.4-3.9
		c0.3-0.2,0.7-0.2,1,0l4.6,3.9c0.3,0.3,0.4,0.7,0.1,1.1C30.8,154.7,30.6,154.7,30.4,154.7z"/>
</g>
<g class="st1">
	<path d="M46.5,166.9c-0.2,0-0.4-0.1-0.5-0.2l-5.4-5.4c-0.3-0.3-0.3-0.8,0-1.1s0.8-0.3,1.1,0l5.4,5.4c0.3,0.3,0.3,0.8,0,1.1
		C46.9,166.9,46.7,166.9,46.5,166.9z"/>
	<path d="M41.1,166.9c-0.2,0-0.4-0.1-0.5-0.2c-0.3-0.3-0.3-0.8,0-1.1l5.4-5.4c0.3-0.3,0.8-0.3,1.1,0s0.3,0.8,0,1.1l-5.4,5.4
		C41.5,166.9,41.3,166.9,41.1,166.9z"/>
</g>
<g class="st1">
	<path d="M123.3,31c-0.2,0-0.4-0.1-0.5-0.2l-5.4-5.4c-0.3-0.3-0.3-0.8,0-1.1c0.3-0.3,0.8-0.3,1.1,0l5.4,5.4c0.3,0.3,0.3,0.8,0,1.1
		C123.6,30.9,123.5,31,123.3,31z"/>
	<path d="M117.9,31c-0.2,0-0.4-0.1-0.5-0.2c-0.3-0.3-0.3-0.8,0-1.1l5.4-5.4c0.3-0.3,0.8-0.3,1.1,0c0.3,0.3,0.3,0.8,0,1.1l-5.4,5.4
		C118.3,30.9,118.1,31,117.9,31z"/>
</g>
<g class="st1">
	<path d="M239,87.6c-0.2,0-0.4-0.1-0.5-0.2l-5.4-5.4c-0.3-0.3-0.3-0.8,0-1.1c0.3-0.3,0.8-0.3,1.1,0l5.4,5.4c0.3,0.3,0.3,0.8,0,1.1
		C239.4,87.5,239.2,87.6,239,87.6z"/>
	<path d="M233.6,87.6c-0.2,0-0.4-0.1-0.5-0.2c-0.3-0.3-0.3-0.8,0-1.1l5.4-5.4c0.3-0.3,0.8-0.3,1.1,0s0.3,0.8,0,1.1l-5.4,5.4
		C234,87.5,233.8,87.6,233.6,87.6z"/>
</g>
<g class="st1">
	<g>
		<path d="M6.2,75.1c-0.4,0-0.7-0.3-0.7-0.7c0,0-0.1-0.5-0.1-1.3c0-0.4,0.3-0.8,0.7-0.8c0.4,0,0.8,0.3,0.8,0.7
			c0,0.7,0.1,1.2,0.1,1.2C7,74.7,6.7,75,6.2,75.1L6.2,75.1z"/>
		<path d="M6,71.3L6,71.3c-0.4,0-0.8-0.4-0.8-0.8c0-0.9,0.1-1.7,0.2-2.6c0-0.4,0.4-0.7,0.8-0.7s0.7,0.4,0.7,0.8
			c-0.1,0.8-0.1,1.7-0.2,2.5C6.8,71,6.4,71.3,6,71.3z M6.5,66.2L6.5,66.2c-0.5-0.1-0.8-0.5-0.7-0.9c0.2-0.9,0.3-1.7,0.6-2.6
			c0.1-0.4,0.5-0.6,0.9-0.5s0.6,0.5,0.5,0.9c-0.2,0.8-0.4,1.6-0.5,2.4C7.2,65.9,6.9,66.2,6.5,66.2z M7.8,61.3c-0.1,0-0.2,0-0.3,0
			c-0.4-0.1-0.6-0.6-0.5-1c0.3-0.8,0.6-1.7,1-2.4c0.2-0.4,0.6-0.5,1-0.4c0.4,0.2,0.5,0.6,0.4,1c-0.3,0.7-0.7,1.5-0.9,2.3
			C8.4,61.1,8.1,61.3,7.8,61.3z M10,56.6c-0.1,0-0.3,0-0.4-0.1c-0.4-0.2-0.5-0.7-0.3-1c0.5-0.8,1-1.5,1.5-2.2
			c0.3-0.3,0.7-0.4,1.1-0.1c0.3,0.3,0.4,0.7,0.1,1.1c-0.5,0.6-1,1.3-1.4,2C10.5,56.5,10.3,56.6,10,56.6z M13.1,52.6
			c-0.2,0-0.4-0.1-0.5-0.2c-0.3-0.3-0.3-0.8,0-1.1c0.6-0.6,1.3-1.2,1.9-1.8c0.3-0.3,0.8-0.2,1.1,0.1s0.2,0.8-0.1,1.1
			c-0.6,0.5-1.2,1.1-1.8,1.7C13.5,52.5,13.3,52.6,13.1,52.6z M17,49.3c-0.2,0-0.5-0.1-0.6-0.3c-0.2-0.3-0.1-0.8,0.2-1
			c0.7-0.5,1.5-0.9,2.3-1.3c0.4-0.2,0.8,0,1,0.3c0.2,0.4,0,0.8-0.3,1c-0.7,0.4-1.5,0.8-2.1,1.2C17.3,49.3,17.2,49.3,17,49.3z
			 M21.6,47c-0.3,0-0.6-0.2-0.7-0.5c-0.2-0.4,0-0.8,0.4-1c0.8-0.3,1.6-0.6,2.5-0.9c0.4-0.1,0.8,0.1,0.9,0.5s-0.1,0.8-0.5,0.9
			c-0.8,0.2-1.6,0.5-2.3,0.8C21.8,47,21.7,47,21.6,47z M26.4,45.5c-0.3,0-0.7-0.2-0.7-0.6c-0.1-0.4,0.2-0.8,0.6-0.9
			c0.8-0.2,1.7-0.3,2.6-0.5c0.4-0.1,0.8,0.2,0.9,0.6c0.1,0.4-0.2,0.8-0.6,0.9c-0.8,0.1-1.7,0.3-2.5,0.5
			C26.5,45.5,26.5,45.5,26.4,45.5z"/>
		<path d="M31.5,44.7c-0.4,0-0.7-0.3-0.7-0.7s0.3-0.8,0.7-0.8c0.4,0,0.8-0.1,1.3-0.1c0.4,0,0.8,0.3,0.8,0.7s-0.3,0.8-0.7,0.8
			C32.4,44.6,32,44.7,31.5,44.7C31.6,44.7,31.5,44.7,31.5,44.7z"/>
	</g>
	<path d="M28.9,49.1c-0.2,0-0.3-0.1-0.5-0.2c-0.3-0.3-0.4-0.7-0.1-1.1l3.4-4.1l-3.4-3.9c-0.3-0.3-0.2-0.8,0.1-1.1
		c0.3-0.3,0.8-0.2,1.1,0.1l3.9,4.4c0.2,0.3,0.2,0.7,0,1l-3.9,4.6C29.3,49.1,29.1,49.1,28.9,49.1z"/>
</g>
<path class="st2" d="M79.9,113.9c-2.5,0-4.6-2.1-4.6-4.6s2.1-4.6,4.6-4.6s4.6,2.1,4.6,4.6S82.5,113.9,79.9,113.9z M79.9,106.2
	c-1.7,0-3.1,1.4-3.1,3.1s1.4,3.1,3.1,3.1s3.1-1.4,3.1-3.1S81.6,106.2,79.9,106.2z"/>
<path class="st2" d="M226.7,138.3c-2.5,0-4.6-2.1-4.6-4.6s2.1-4.6,4.6-4.6s4.6,2.1,4.6,4.6S229.2,138.3,226.7,138.3z M226.7,130.6
	c-1.7,0-3.1,1.4-3.1,3.1c0,1.7,1.4,3.1,3.1,3.1s3.1-1.4,3.1-3.1S228.4,130.6,226.7,130.6z"/>
<path class="st2" d="M232.1,237.1c-4.9,0-8.9-4-8.9-8.9s4-8.9,8.9-8.9s8.9,4,8.9,8.9S236.9,237.1,232.1,237.1z M232.1,222.3
	c-3.3,0-6,2.7-6,6s2.7,6,6,6s6-2.7,6-6S235.3,222.3,232.1,222.3z"/>
<g class="st1">
	<path d="M94.6,92.4c-0.2,0-0.4-0.1-0.5-0.2l-5.4-5.4c-0.3-0.3-0.3-0.8,0-1.1c0.3-0.3,0.8-0.3,1.1,0l5.4,5.4c0.3,0.3,0.3,0.8,0,1.1
		C95,92.3,94.8,92.4,94.6,92.4z"/>
	<path d="M89.2,92.4c-0.2,0-0.4-0.1-0.5-0.2c-0.3-0.3-0.3-0.8,0-1.1l5.4-5.4c0.3-0.3,0.8-0.3,1.1,0c0.3,0.3,0.3,0.8,0,1.1l-5.4,5.4
		C89.6,92.3,89.4,92.4,89.2,92.4z"/>
</g>
<circle class="st2" cx="146.4" cy="81.9" r="3.9"/>
<path class="st2" d="M146.4,76.4c-0.4,0-0.8-0.3-0.8-0.8v-2.5c0-0.4,0.3-0.8,0.8-0.8s0.8,0.3,0.8,0.8v2.5
	C147.2,76.1,146.9,76.4,146.4,76.4z M146.4,71.4c-0.4,0-0.8-0.3-0.8-0.8v-2.5c0-0.4,0.3-0.8,0.8-0.8s0.8,0.3,0.8,0.8v2.5
	C147.2,71.1,146.9,71.4,146.4,71.4z M146.4,66.4c-0.4,0-0.8-0.3-0.8-0.8v-2.5c0-0.4,0.3-0.8,0.8-0.8s0.8,0.3,0.8,0.8v2.5
	C147.2,66.1,146.9,66.4,146.4,66.4z M146.4,61.4c-0.4,0-0.8-0.3-0.8-0.8v-2.5c0-0.4,0.3-0.8,0.8-0.8s0.8,0.3,0.8,0.8v2.5
	C147.2,61.1,146.9,61.4,146.4,61.4z M146.4,56.4c-0.4,0-0.8-0.3-0.8-0.8v-2.5c0-0.4,0.3-0.8,0.8-0.8s0.8,0.3,0.8,0.8v2.5
	C147.2,56.1,146.9,56.4,146.4,56.4z M146.4,51.4c-0.4,0-0.8-0.3-0.8-0.8v-2.5c0-0.4,0.3-0.8,0.8-0.8s0.8,0.3,0.8,0.8v2.5
	C147.2,51.1,146.9,51.4,146.4,51.4z M146.4,46.4c-0.4,0-0.8-0.3-0.8-0.8v-2.5c0-0.4,0.3-0.8,0.8-0.8s0.8,0.3,0.8,0.8v2.5
	C147.2,46.1,146.9,46.4,146.4,46.4z M146.4,41.4c-0.4,0-0.8-0.3-0.8-0.8v-1.4c0-0.4,0.3-0.8,0.8-0.8s0.8,0.3,0.8,0.8v1.4
	C147.2,41.1,146.9,41.4,146.4,41.4z"/>
<path class="st2" d="M143.1,42.9c-0.2,0-0.4-0.1-0.6-0.3c-0.3-0.3-0.2-0.8,0.1-1.1l3.4-2.9c0.3-0.3,0.8-0.2,1.1,0.1s0.2,0.8-0.1,1.1
	l-3.4,2.9C143.4,42.8,143.2,42.9,143.1,42.9z"/>
<path class="st2" d="M149.8,42.9c-0.2,0-0.3-0.1-0.5-0.2l-3.4-2.9c-0.3-0.3-0.3-0.7-0.1-1.1c0.3-0.3,0.7-0.3,1.1-0.1l3.4,2.9
	c0.3,0.3,0.3,0.7,0.1,1.1C150.2,42.8,150,42.9,149.8,42.9z"/>
<pattern  id="SVGID_3_" xlink:href="#Nueva_muestra_de_motivo_5" patternTransform="matrix(1 0 0 -1 -118.4 -16771.1992)">
</pattern>
<circle class="st5" cx="212.6" cy="166.2" r="12.4"/>
<g class="st1">
	<path d="M201.2,193.7c-0.2,0-0.4-0.1-0.5-0.2l-5.4-5.4c-0.3-0.3-0.3-0.8,0-1.1s0.8-0.3,1.1,0l5.4,5.4c0.3,0.3,0.3,0.8,0,1.1
		C201.6,193.6,201.4,193.7,201.2,193.7z"/>
	<path d="M195.9,193.7c-0.2,0-0.4-0.1-0.5-0.2c-0.3-0.3-0.3-0.8,0-1.1l5.4-5.4c0.3-0.3,0.8-0.3,1.1,0s0.3,0.8,0,1.1l-5.4,5.4
		C196.3,193.6,196.1,193.7,195.9,193.7z"/>
</g>
<circle class="st2" cx="64.8" cy="11.2" r="6.5"/>
<pattern  id="SVGID_4_" xlink:href="#Nueva_muestra_de_motivo_5" patternTransform="matrix(1 0 0 -1 -118.4 -16771.1992)">
</pattern>
<polygon class="st6" points="100.2,223.6 91.5,229.9 94.8,240.2 105.6,240.2 109,229.9 "/>
<path class="st2" d="M180.7,213.8c-2.5,0-4.6-2.1-4.6-4.6s2.1-4.6,4.6-4.6s4.6,2.1,4.6,4.6S183.2,213.8,180.7,213.8z M180.7,206.1
	c-1.7,0-3.1,1.4-3.1,3.1c0,1.7,1.4,3.1,3.1,3.1s3.1-1.4,3.1-3.1C183.8,207.4,182.4,206.1,180.7,206.1z"/>
<g class="st1">
	<path d="M207.2,147.4c-0.2,0-0.4-0.1-0.5-0.2l-20.3-20.3c-0.2-0.2-0.3-0.5-0.2-0.8s0.4-0.5,0.7-0.5h4.2c0.4,0,0.8,0.3,0.8,0.8
		s-0.3,0.8-0.8,0.8h-2.3l19,19c0.3,0.3,0.3,0.8,0,1.1C207.6,147.4,207.4,147.4,207.2,147.4z"/>
	<path d="M186.9,131.9c-0.4,0-0.8-0.3-0.8-0.8v-4.8c0-0.4,0.3-0.8,0.8-0.8s0.8,0.3,0.8,0.8v4.8C187.7,131.6,187.3,131.9,186.9,131.9
		z"/>
</g>
<g class="st1">
	<path d="M109.5,221.5c-0.2,0-0.4-0.1-0.6-0.3c-0.3-0.3-0.2-0.8,0.1-1.1c0.1-0.1,9.5-7.4,10.6-18.5c0.7-7-2-14-7.9-20.8
		c-0.3-0.3-0.2-0.8,0.1-1.1c0.3-0.3,0.8-0.2,1.1,0.1c6.3,7.2,9.1,14.5,8.3,21.9c-1.2,11.7-10.8,19.2-11.2,19.5
		C109.8,221.5,109.7,221.5,109.5,221.5z"/>
	<path d="M111.8,187.1C111.8,187.1,111.7,187.1,111.8,187.1c-0.5,0-0.8-0.4-0.7-0.8l0.5-5.9c0-0.4,0.3-0.7,0.7-0.7l5.8-0.4
		c0.4,0,0.8,0.3,0.8,0.7s-0.3,0.8-0.7,0.8l-5.2,0.3l-0.4,5.3C112.5,186.8,112.2,187.1,111.8,187.1z"/>
</g>
<g class="st1">
	<path d="M111.6,205.9c-0.2,0-0.4-0.1-0.5-0.2l-5.4-5.4c-0.3-0.3-0.3-0.8,0-1.1s0.8-0.3,1.1,0l5.4,5.4c0.3,0.3,0.3,0.8,0,1.1
		C112,205.8,111.8,205.9,111.6,205.9z"/>
	<path d="M106.3,205.9c-0.2,0-0.4-0.1-0.5-0.2c-0.3-0.3-0.3-0.8,0-1.1l5.4-5.4c0.3-0.3,0.8-0.3,1.1,0s0.3,0.8,0,1.1l-5.4,5.4
		C106.7,205.8,106.5,205.9,106.3,205.9z"/>
</g>
<circle class="st2" cx="34.8" cy="102.6" r="3.9"/>
<g class="st1">
	<path d="M21.6,63.8c-0.2,0-0.4-0.1-0.5-0.2l-5.4-5.4c-0.3-0.3-0.3-0.8,0-1.1c0.3-0.3,0.8-0.3,1.1,0l5.4,5.4c0.3,0.3,0.3,0.8,0,1.1
		C21.9,63.7,21.8,63.8,21.6,63.8z"/>
	<path d="M16.2,63.8c-0.2,0-0.4-0.1-0.5-0.2c-0.3-0.3-0.3-0.8,0-1.1l5.4-5.4c0.3-0.3,0.8-0.3,1.1,0c0.3,0.3,0.3,0.8,0,1.1l-5.4,5.4
		C16.6,63.7,16.4,63.8,16.2,63.8z"/>
</g>
<path class="st2" d="M138.5,232.5V250h1.4v-7.3h7.9v7.3h1.4v-8.7h-9.3v-7.5h31.7v8.3c-4.6,0.3-8.5,3.6-9.6,7.9h1.5
	c1.1-3.5,4.3-6.1,8.1-6.4v6.4h1.4v-6.4c3.8,0.3,7,2.9,8.1,6.4h1.5c-1.2-4.3-5-7.5-9.6-7.8v-8.3h31.7v7.4h-9.2v8.7h1.4v-7.3h7.9v7.3
	h1.4v-17.5H138.5z"/>
<path class="st2" d="M204.8,0v13.2h-7.9V0h-1.4v14.6h9.3V22H173v-8.3c5.6-0.4,10-5,10-10.7c0-1-0.2-2-0.4-3h-1.5
	c0.3,0.9,0.5,2,0.5,3c0,4.9-3.8,8.9-8.6,9.3V0h-1.4v12.3C166.8,12,163,7.9,163,3c0-1,0.2-2.1,0.5-3H162c-0.3,1-0.4,2-0.4,3
	c0,5.7,4.4,10.3,10,10.7V22h-31.7v-7.4h9.3V0h-1.4v13.2h-7.9V0h-1.4v23.4h67.7V0H204.8z"/>
</svg>
