<?xml version="1.0" encoding="utf-8"?>
<!-- Generator: Adobe Illustrator 24.2.1, SVG Export Plug-In . SVG Version: 6.00 Build 0)  -->
<svg version="1.1" id="Capa_1" xmlns="http://www.w3.org/2000/svg" xmlns:xlink="http://www.w3.org/1999/xlink" x="0px" y="0px"
	 viewBox="0 0 250 250" style="enable-background:new 0 0 250 250;" xml:space="preserve">
<style type="text/css">
	.st0{fill:#6956E7;}
	.st1{clip-path:url(#SVGID_2_);}
	.st2{fill:url(#SVGID_3_);}
	.st3{fill:url(#SVGID_4_);}
	.st4{fill:none;stroke:url(#SVGID_5_);stroke-width:2.3538;stroke-miterlimit:10;}
	.st5{fill:url(#SVGID_6_);}
	.st6{fill:url(#SVGID_7_);}
	.st7{fill:#B19FFB;}
</style>
<g>
	<g>
		<g>
			<circle class="st0" cx="0.8" cy="187.9" r="1.6"/>
			<circle class="st0" cx="0.8" cy="172.2" r="1.6"/>
			<circle class="st0" cx="0.8" cy="156.5" r="1.6"/>
			<circle class="st0" cx="0.8" cy="140.8" r="1.6"/>
			<circle class="st0" cx="0.8" cy="125.1" r="1.6"/>
			<circle class="st0" cx="16.5" cy="187.9" r="1.6"/>
			<circle class="st0" cx="16.5" cy="172.2" r="1.6"/>
			<circle class="st0" cx="16.5" cy="156.5" r="1.6"/>
			<circle class="st0" cx="16.5" cy="140.8" r="1.6"/>
			<circle class="st0" cx="16.5" cy="125.1" r="1.6"/>
			<circle class="st0" cx="32.2" cy="187.9" r="1.6"/>
			<circle class="st0" cx="32.2" cy="172.2" r="1.6"/>
			<circle class="st0" cx="32.2" cy="156.5" r="1.6"/>
			<circle class="st0" cx="32.2" cy="140.8" r="1.6"/>
			<circle class="st0" cx="32.2" cy="125.1" r="1.6"/>
			<circle class="st0" cx="47.9" cy="187.9" r="1.6"/>
			<circle class="st0" cx="47.9" cy="172.2" r="1.6"/>
			<circle class="st0" cx="47.9" cy="156.5" r="1.6"/>
			<circle class="st0" cx="47.9" cy="140.8" r="1.6"/>
			<circle class="st0" cx="47.9" cy="125.1" r="1.6"/>
			<circle class="st0" cx="63.6" cy="187.9" r="1.6"/>
			<circle class="st0" cx="63.6" cy="172.2" r="1.6"/>
			<circle class="st0" cx="63.6" cy="156.5" r="1.6"/>
			<circle class="st0" cx="63.6" cy="140.8" r="1.6"/>
			<circle class="st0" cx="63.6" cy="125.1" r="1.6"/>
			<circle class="st0" cx="79.3" cy="187.9" r="1.6"/>
			<circle class="st0" cx="79.3" cy="172.2" r="1.6"/>
			<circle class="st0" cx="79.3" cy="156.5" r="1.6"/>
			<circle class="st0" cx="79.3" cy="140.8" r="1.6"/>
			<circle class="st0" cx="79.3" cy="125.1" r="1.6"/>
			<circle class="st0" cx="95" cy="187.9" r="1.6"/>
			<circle class="st0" cx="95" cy="172.2" r="1.6"/>
			<circle class="st0" cx="95" cy="156.5" r="1.6"/>
			<circle class="st0" cx="95" cy="140.8" r="1.6"/>
			<circle class="st0" cx="95" cy="125.1" r="1.6"/>
		</g>
	</g>
	<g>
		<defs>
			
				<rect id="SVGID_1_" x="39.4" y="57.1" transform="matrix(6.123234e-17 -1 1 6.123234e-17 -60.9512 186.6151)" width="46.8" height="133.4"/>
		</defs>
		<clipPath id="SVGID_2_">
			<use xlink:href="#SVGID_1_"  style="overflow:visible;"/>
		</clipPath>
		<g class="st1">
			<g>
				
					<radialGradient id="SVGID_3_" cx="-1227.7395" cy="-1626.0216" r="97.3712" fx="-1278.587" fy="-1680.5061" gradientTransform="matrix(0 1 -1 0 -1563.1224 1361.4822)" gradientUnits="userSpaceOnUse">
					<stop  offset="0" style="stop-color:#C264E9"/>
					<stop  offset="9.020855e-02" style="stop-color:#BC63E9"/>
					<stop  offset="0.2083" style="stop-color:#AC61E8"/>
					<stop  offset="0.3418" style="stop-color:#915CE8"/>
					<stop  offset="0.4857" style="stop-color:#6B56E7"/>
					<stop  offset="0.4938" style="stop-color:#6956E7"/>
					<stop  offset="0.5469" style="stop-color:#635EE8"/>
					<stop  offset="0.6292" style="stop-color:#5474E9"/>
					<stop  offset="0.7303" style="stop-color:#3B97EC"/>
					<stop  offset="0.8452" style="stop-color:#19C8EF"/>
					<stop  offset="0.9198" style="stop-color:#00ECF2"/>
				</radialGradient>
				<circle class="st2" cx="62.9" cy="133.7" r="75.7"/>
				
					<linearGradient id="SVGID_4_" gradientUnits="userSpaceOnUse" x1="-1303.4784" y1="-1626.0216" x2="-1152.0007" y2="-1626.0216" gradientTransform="matrix(0 1 -1 0 -1563.1224 1361.4822)">
					<stop  offset="0" style="stop-color:#FDE0F4"/>
					<stop  offset="3.971648e-02" style="stop-color:#F2D7F5;stop-opacity:0.9603"/>
					<stop  offset="0.1492" style="stop-color:#DAC2F7;stop-opacity:0.8508"/>
					<stop  offset="0.2737" style="stop-color:#C8B3F9;stop-opacity:0.7263"/>
					<stop  offset="0.4205" style="stop-color:#BBA7FA;stop-opacity:0.5795"/>
					<stop  offset="0.6105" style="stop-color:#B3A1FB;stop-opacity:0.3895"/>
					<stop  offset="1" style="stop-color:#B19FFB;stop-opacity:0"/>
				</linearGradient>
				<circle class="st3" cx="62.9" cy="133.7" r="75.7"/>
			</g>
		</g>
	</g>
	<linearGradient id="SVGID_5_" gradientUnits="userSpaceOnUse" x1="102.8459" y1="98.0339" x2="156.9823" y2="98.0339">
		<stop  offset="0" style="stop-color:#6956E7"/>
		<stop  offset="1" style="stop-color:#C264E9"/>
	</linearGradient>
	<rect x="104" y="72.1" class="st4" width="51.8" height="51.8"/>
	<g>
		
			<radialGradient id="SVGID_6_" cx="-547.8427" cy="-2178.7014" r="14.8374" fx="-555.5909" fy="-2187.0037" gradientTransform="matrix(-1 0 0 -1 -509.3682 -2106.5986)" gradientUnits="userSpaceOnUse">
			<stop  offset="0" style="stop-color:#C264E9"/>
			<stop  offset="9.020855e-02" style="stop-color:#BC63E9"/>
			<stop  offset="0.2083" style="stop-color:#AC61E8"/>
			<stop  offset="0.3418" style="stop-color:#915CE8"/>
			<stop  offset="0.4857" style="stop-color:#6B56E7"/>
			<stop  offset="0.4938" style="stop-color:#6956E7"/>
			<stop  offset="0.5469" style="stop-color:#635EE8"/>
			<stop  offset="0.6292" style="stop-color:#5474E9"/>
			<stop  offset="0.7303" style="stop-color:#3B97EC"/>
			<stop  offset="0.8452" style="stop-color:#19C8EF"/>
			<stop  offset="0.9198" style="stop-color:#00ECF2"/>
		</radialGradient>
		<circle class="st5" cx="38.5" cy="72.1" r="11.5"/>
		
			<linearGradient id="SVGID_7_" gradientUnits="userSpaceOnUse" x1="-559.3838" y1="-2178.7014" x2="-536.3016" y2="-2178.7014" gradientTransform="matrix(-1 0 0 -1 -509.3682 -2106.5986)">
			<stop  offset="0" style="stop-color:#FDE0F4"/>
			<stop  offset="3.971648e-02" style="stop-color:#F2D7F5;stop-opacity:0.9603"/>
			<stop  offset="0.1492" style="stop-color:#DAC2F7;stop-opacity:0.8508"/>
			<stop  offset="0.2737" style="stop-color:#C8B3F9;stop-opacity:0.7263"/>
			<stop  offset="0.4205" style="stop-color:#BBA7FA;stop-opacity:0.5795"/>
			<stop  offset="0.6105" style="stop-color:#B3A1FB;stop-opacity:0.3895"/>
			<stop  offset="1" style="stop-color:#B19FFB;stop-opacity:0"/>
		</linearGradient>
		<circle class="st6" cx="38.5" cy="72.1" r="11.5"/>
	</g>
	<g>
		
			<rect x="225.8" y="160.6" transform="matrix(-0.7071 -0.7071 0.7071 -0.7071 269.011 453.7454)" class="st7" width="5.3" height="21"/>
		
			<rect x="225.8" y="160.6" transform="matrix(0.7071 -0.7071 0.7071 0.7071 -54.1076 211.6893)" class="st7" width="5.3" height="21"/>
	</g>
	<g>
		<g>
			<path class="st7" d="M228.3,149.6c0.4,0,0.7-0.3,0.8-0.7c0,0,0.1-0.5,0.1-1.4c0-0.4-0.3-0.8-0.8-0.8c-0.4,0-0.8,0.3-0.8,0.8
				c0,0.8-0.1,1.3-0.1,1.3c-0.1,0.4,0.2,0.8,0.7,0.9C228.2,149.6,228.3,149.6,228.3,149.6z"/>
			<path class="st7" d="M227.6,144.7c0-0.9-0.1-1.8-0.2-2.7c0-0.4,0.3-0.8,0.7-0.9c0.4,0,0.8,0.3,0.9,0.7c0.1,0.9,0.1,1.9,0.2,2.8
				c0,0.4-0.3,0.8-0.8,0.8c0,0,0,0,0,0C228,145.5,227.6,145.2,227.6,144.7z M227.1,139.4c-0.2-0.9-0.3-1.8-0.6-2.6
				c-0.1-0.4,0.1-0.9,0.6-1c0.4-0.1,0.9,0.1,1,0.6c0.2,0.9,0.4,1.8,0.6,2.7c0.1,0.4-0.2,0.8-0.6,0.9c0,0-0.1,0-0.1,0
				C227.5,140.1,227.2,139.8,227.1,139.4z M225.8,134.3c-0.3-0.8-0.6-1.7-1-2.4c-0.2-0.4,0-0.9,0.4-1.1c0.4-0.2,0.9,0,1.1,0.4
				c0.4,0.8,0.8,1.7,1.1,2.6c0.1,0.4-0.1,0.9-0.5,1c-0.1,0-0.2,0-0.3,0C226.2,134.8,225.9,134.6,225.8,134.3z M223.5,129.5
				c-0.5-0.8-1-1.5-1.5-2.2c-0.3-0.4-0.2-0.9,0.1-1.1c0.4-0.3,0.9-0.2,1.1,0.1c0.6,0.7,1.1,1.5,1.6,2.3c0.2,0.4,0.1,0.9-0.3,1.1
				c-0.1,0.1-0.3,0.1-0.4,0.1C223.9,129.9,223.7,129.7,223.5,129.5z M220.3,125.3c-0.6-0.6-1.3-1.2-1.9-1.8
				c-0.3-0.3-0.4-0.8-0.1-1.1c0.3-0.3,0.8-0.4,1.1-0.1c0.7,0.6,1.4,1.2,2.1,1.9c0.3,0.3,0.3,0.8,0,1.1c-0.2,0.1-0.4,0.2-0.6,0.2
				C220.7,125.6,220.5,125.5,220.3,125.3z M216.3,122c-0.7-0.5-1.5-0.9-2.3-1.3c-0.4-0.2-0.5-0.7-0.3-1.1c0.2-0.4,0.7-0.5,1.1-0.3
				c0.8,0.4,1.7,0.9,2.4,1.4c0.4,0.2,0.5,0.7,0.2,1.1c-0.2,0.2-0.4,0.4-0.7,0.4C216.5,122.1,216.4,122.1,216.3,122z M211.6,119.5
				c-0.8-0.3-1.6-0.6-2.5-0.9c-0.4-0.1-0.7-0.6-0.5-1c0.1-0.4,0.6-0.7,1-0.5c0.9,0.3,1.8,0.6,2.6,0.9c0.4,0.2,0.6,0.6,0.4,1
				c-0.1,0.3-0.4,0.5-0.7,0.5C211.8,119.6,211.7,119.6,211.6,119.5z M206.5,118c-0.8-0.2-1.7-0.4-2.6-0.5c-0.4-0.1-0.7-0.5-0.7-0.9
				c0.1-0.4,0.5-0.7,0.9-0.7c0.9,0.1,1.8,0.3,2.7,0.5c0.4,0.1,0.7,0.5,0.6,1c-0.1,0.4-0.4,0.6-0.8,0.6
				C206.6,118,206.6,118,206.5,118z"/>
			<path class="st7" d="M201.3,117.1c0.4,0,0.8-0.3,0.8-0.7c0-0.4-0.3-0.8-0.7-0.9c-0.4,0-0.9-0.1-1.4-0.1c-0.4,0-0.8,0.3-0.9,0.7
				c0,0.4,0.3,0.8,0.7,0.9C200.3,117.1,200.8,117.1,201.3,117.1C201.2,117.1,201.2,117.1,201.3,117.1z"/>
		</g>
		<path class="st7" d="M204,121.9c0.2,0,0.4-0.1,0.5-0.2c0.3-0.3,0.4-0.8,0.1-1.1l-3.7-4.3l3.7-4.2c0.3-0.3,0.3-0.8-0.1-1.1
			c-0.3-0.3-0.8-0.3-1.1,0.1l-4.1,4.7c-0.3,0.3-0.3,0.7,0,1l4.1,4.9C203.6,121.8,203.8,121.9,204,121.9z"/>
	</g>
	<circle class="st7" cx="179.7" cy="108.9" r="9.3"/>
</g>
</svg>
