<?xml version="1.0" encoding="utf-8"?>
<!-- Generator: Adobe Illustrator 24.2.1, SVG Export Plug-In . SVG Version: 6.00 Build 0)  -->
<svg version="1.1" id="Capa_1" xmlns="http://www.w3.org/2000/svg" xmlns:xlink="http://www.w3.org/1999/xlink" x="0px" y="0px"
	 viewBox="0 0 250 250" style="enable-background:new 0 0 250 250;" xml:space="preserve">
<style type="text/css">
	.st0{fill:none;}
	.st1{fill:none;stroke:#6956E7;stroke-linecap:round;stroke-miterlimit:10;}
	.st2{fill:#B19FFB;}
	.st3{fill:#6956E7;}
	.st4{fill:url(#SVGID_1_);}
	.st5{clip-path:url(#SVGID_3_);}
	.st6{fill:url(#SVGID_4_);}
	.st7{fill:url(#SVGID_5_);}
	.st8{fill:url(#SVGID_6_);}
	.st9{fill:url(#SVGID_7_);}
</style>
<pattern  width="24" height="24" patternUnits="userSpaceOnUse" id="Nueva_muestra_de_motivo_2" viewBox="83.2 -107.3 24 24" style="overflow:visible;">
	<g>
		<rect x="83.2" y="-107.3" class="st0" width="24" height="24"/>
		<line class="st1" x1="96.5" y1="-0.5" x2="190" y2="-94"/>
		<line class="st1" x1="72.5" y1="-0.5" x2="166" y2="-94"/>
		<line class="st1" x1="48.5" y1="-0.5" x2="142" y2="-94"/>
		<line class="st1" x1="24.5" y1="-0.5" x2="118" y2="-94"/>
		<line class="st1" x1="0.5" y1="-0.5" x2="94" y2="-94"/>
		<line class="st1" x1="96.5" y1="-24.5" x2="190" y2="-118"/>
		<line class="st1" x1="72.5" y1="-24.5" x2="166" y2="-118"/>
		<line class="st1" x1="48.5" y1="-24.5" x2="142" y2="-118"/>
		<line class="st1" x1="24.5" y1="-24.5" x2="118" y2="-118"/>
		<line class="st1" x1="0.5" y1="-24.5" x2="94" y2="-118"/>
		<line class="st1" x1="96.5" y1="-48.5" x2="190" y2="-142"/>
		<line class="st1" x1="72.5" y1="-48.5" x2="166" y2="-142"/>
		<line class="st1" x1="48.5" y1="-48.5" x2="142" y2="-142"/>
		<line class="st1" x1="24.5" y1="-48.5" x2="118" y2="-142"/>
		<line class="st1" x1="0.5" y1="-48.5" x2="94" y2="-142"/>
		<line class="st1" x1="96.5" y1="-72.5" x2="190" y2="-166"/>
		<line class="st1" x1="72.5" y1="-72.5" x2="166" y2="-166"/>
		<line class="st1" x1="48.5" y1="-72.5" x2="142" y2="-166"/>
		<line class="st1" x1="24.5" y1="-72.5" x2="118" y2="-166"/>
		<line class="st1" x1="0.5" y1="-72.5" x2="94" y2="-166"/>
		<line class="st1" x1="96.5" y1="-96.5" x2="190" y2="-190"/>
		<line class="st1" x1="72.5" y1="-96.5" x2="166" y2="-190"/>
		<line class="st1" x1="48.5" y1="-96.5" x2="142" y2="-190"/>
		<line class="st1" x1="24.5" y1="-96.5" x2="118" y2="-190"/>
		<line class="st1" x1="0.5" y1="-96.5" x2="94" y2="-190"/>
	</g>
</pattern>
<g>
	<g>
		
			<rect x="136.4" y="97.2" transform="matrix(0.7071 -0.7071 0.7071 0.7071 -34.8819 129.5023)" class="st2" width="4.9" height="19.3"/>
		
			<rect x="136.4" y="97.2" transform="matrix(-0.7071 -0.7071 0.7071 -0.7071 161.5278 280.6212)" class="st2" width="4.9" height="19.3"/>
	</g>
	<g>
		<g>
			<circle class="st3" cx="146.1" cy="217.4" r="1.4"/>
			<circle class="st3" cx="146.1" cy="203" r="1.4"/>
			<circle class="st3" cx="146.1" cy="188.5" r="1.4"/>
			<circle class="st3" cx="146.1" cy="174.1" r="1.4"/>
			<circle class="st3" cx="146.1" cy="159.6" r="1.4"/>
			<circle class="st3" cx="160.6" cy="217.4" r="1.4"/>
			<circle class="st3" cx="160.6" cy="203" r="1.4"/>
			<circle class="st3" cx="160.6" cy="188.5" r="1.4"/>
			<circle class="st3" cx="160.6" cy="174.1" r="1.4"/>
			<circle class="st3" cx="160.6" cy="159.6" r="1.4"/>
			<circle class="st3" cx="175" cy="217.4" r="1.4"/>
			<circle class="st3" cx="175" cy="203" r="1.4"/>
			<circle class="st3" cx="175" cy="188.5" r="1.4"/>
			<circle class="st3" cx="175" cy="174.1" r="1.4"/>
			<circle class="st3" cx="175" cy="159.6" r="1.4"/>
			<circle class="st3" cx="189.4" cy="217.4" r="1.4"/>
			<circle class="st3" cx="189.4" cy="203" r="1.4"/>
			<circle class="st3" cx="189.4" cy="188.5" r="1.4"/>
			<circle class="st3" cx="189.4" cy="174.1" r="1.4"/>
			<circle class="st3" cx="189.4" cy="159.6" r="1.4"/>
			<circle class="st3" cx="203.9" cy="217.4" r="1.4"/>
			<circle class="st3" cx="203.9" cy="203" r="1.4"/>
			<circle class="st3" cx="203.9" cy="188.5" r="1.4"/>
			<circle class="st3" cx="203.9" cy="174.1" r="1.4"/>
			<circle class="st3" cx="203.9" cy="159.6" r="1.4"/>
			<circle class="st3" cx="218.3" cy="217.4" r="1.4"/>
			<circle class="st3" cx="218.3" cy="203" r="1.4"/>
			<circle class="st3" cx="218.3" cy="188.5" r="1.4"/>
			<circle class="st3" cx="218.3" cy="174.1" r="1.4"/>
			<circle class="st3" cx="218.3" cy="159.6" r="1.4"/>
			<circle class="st3" cx="232.7" cy="217.4" r="1.4"/>
			<circle class="st3" cx="232.7" cy="203" r="1.4"/>
			<circle class="st3" cx="232.7" cy="188.5" r="1.4"/>
			<circle class="st3" cx="232.7" cy="174.1" r="1.4"/>
			<circle class="st3" cx="232.7" cy="159.6" r="1.4"/>
			<circle class="st3" cx="247.2" cy="217.4" r="1.4"/>
			<circle class="st3" cx="247.2" cy="203" r="1.4"/>
			<circle class="st3" cx="247.2" cy="188.5" r="1.4"/>
			<circle class="st3" cx="247.2" cy="174.1" r="1.4"/>
			<circle class="st3" cx="247.2" cy="159.6" r="1.4"/>
		</g>
	</g>
	<g>
		<g>
			<path class="st2" d="M139.1,87c-0.4,0-0.7-0.3-0.7-0.6c0,0-0.1-0.5-0.1-1.3c0-0.4,0.3-0.8,0.7-0.8c0.4,0,0.8,0.3,0.8,0.7
				c0,0.7,0.1,1.2,0.1,1.2C139.8,86.5,139.6,86.9,139.1,87C139.1,87,139.1,87,139.1,87z"/>
			<path class="st2" d="M138.9,83.3C138.9,83.3,138.9,83.3,138.9,83.3c-0.4,0-0.7-0.3-0.7-0.8c0-0.9,0.1-1.7,0.2-2.6
				c0-0.4,0.4-0.7,0.8-0.7c0.4,0,0.7,0.4,0.7,0.8c-0.1,0.8-0.1,1.6-0.2,2.5C139.6,82.9,139.3,83.3,138.9,83.3z M139.4,78.3
				c0,0-0.1,0-0.1,0c-0.4-0.1-0.7-0.5-0.6-0.9c0.1-0.9,0.3-1.7,0.5-2.5c0.1-0.4,0.5-0.6,0.9-0.5c0.4,0.1,0.6,0.5,0.5,0.9
				c-0.2,0.8-0.4,1.6-0.5,2.4C140.1,78,139.8,78.3,139.4,78.3z M140.7,73.4c-0.1,0-0.2,0-0.2,0c-0.4-0.1-0.6-0.6-0.4-0.9
				c0.3-0.8,0.6-1.6,1-2.4c0.2-0.4,0.6-0.5,1-0.4c0.4,0.2,0.5,0.6,0.4,1c-0.3,0.7-0.7,1.5-0.9,2.3C141.3,73.2,141,73.4,140.7,73.4z
				 M142.8,68.9c-0.1,0-0.3,0-0.4-0.1c-0.3-0.2-0.5-0.7-0.2-1c0.4-0.7,0.9-1.5,1.5-2.1c0.2-0.3,0.7-0.4,1-0.1c0.3,0.2,0.4,0.7,0.1,1
				c-0.5,0.6-0.9,1.3-1.4,2C143.3,68.8,143.1,68.9,142.8,68.9z M145.9,64.9c-0.2,0-0.4-0.1-0.5-0.2c-0.3-0.3-0.3-0.7,0-1
				c0.6-0.6,1.2-1.2,1.9-1.8c0.3-0.3,0.8-0.2,1,0.1c0.3,0.3,0.2,0.8-0.1,1c-0.6,0.5-1.2,1.1-1.8,1.6
				C146.3,64.8,146.1,64.9,145.9,64.9z M149.7,61.7c-0.2,0-0.5-0.1-0.6-0.3c-0.2-0.3-0.1-0.8,0.2-1c0.7-0.5,1.5-0.9,2.2-1.3
				c0.4-0.2,0.8,0,1,0.3c0.2,0.4,0,0.8-0.3,1c-0.7,0.4-1.4,0.8-2.1,1.2C150,61.7,149.9,61.7,149.7,61.7z M154.2,59.4
				c-0.3,0-0.6-0.2-0.7-0.5c-0.2-0.4,0-0.8,0.4-1c0.8-0.3,1.6-0.6,2.4-0.9c0.4-0.1,0.8,0.1,0.9,0.5c0.1,0.4-0.1,0.8-0.5,0.9
				c-0.8,0.2-1.6,0.5-2.3,0.8C154.4,59.4,154.3,59.4,154.2,59.4z M158.9,57.9c-0.3,0-0.6-0.2-0.7-0.6c-0.1-0.4,0.2-0.8,0.6-0.9
				c0.8-0.2,1.7-0.3,2.5-0.5c0.4-0.1,0.8,0.2,0.8,0.6c0.1,0.4-0.2,0.8-0.6,0.8c-0.8,0.1-1.6,0.3-2.4,0.5
				C159.1,57.9,159,57.9,158.9,57.9z"/>
			<path class="st2" d="M163.9,57.2c-0.4,0-0.7-0.3-0.7-0.7c0-0.4,0.3-0.8,0.7-0.8c0.4,0,0.8-0.1,1.2-0.1c0.4,0,0.8,0.3,0.8,0.7
				c0,0.4-0.3,0.8-0.7,0.8C164.8,57.1,164.4,57.1,163.9,57.2C164,57.2,163.9,57.2,163.9,57.2z"/>
		</g>
		<path class="st2" d="M161.4,61.5c-0.2,0-0.3-0.1-0.5-0.2c-0.3-0.3-0.3-0.7-0.1-1l3.4-4l-3.4-3.8c-0.3-0.3-0.2-0.8,0.1-1
			c0.3-0.3,0.8-0.2,1,0.1l3.8,4.3c0.2,0.3,0.2,0.7,0,1l-3.8,4.5C161.8,61.4,161.6,61.5,161.4,61.5z"/>
	</g>
	<pattern  id="SVGID_1_" xlink:href="#Nueva_muestra_de_motivo_2" patternTransform="matrix(1 0 0 1 -10 -14)">
	</pattern>
	<rect x="162" y="-1.3" class="st4" width="52" height="52"/>
	<g>
		<defs>
			<rect id="SVGID_2_" x="207.7" y="-1.3" width="43.1" height="122.7"/>
		</defs>
		<clipPath id="SVGID_3_">
			<use xlink:href="#SVGID_2_"  style="overflow:visible;"/>
		</clipPath>
		<g class="st5">
			<g>
				
					<radialGradient id="SVGID_4_" cx="-729.4564" cy="-2166.6904" r="89.5825" fx="-776.2367" fy="-2216.8167" gradientTransform="matrix(-1 0 0 -1 -509.3682 -2106.5986)" gradientUnits="userSpaceOnUse">
					<stop  offset="0" style="stop-color:#C264E9"/>
					<stop  offset="9.020855e-02" style="stop-color:#BC63E9"/>
					<stop  offset="0.2083" style="stop-color:#AC61E8"/>
					<stop  offset="0.3418" style="stop-color:#915CE8"/>
					<stop  offset="0.4857" style="stop-color:#6B56E7"/>
					<stop  offset="0.4938" style="stop-color:#6956E7"/>
					<stop  offset="0.5469" style="stop-color:#635EE8"/>
					<stop  offset="0.6292" style="stop-color:#5474E9"/>
					<stop  offset="0.7303" style="stop-color:#3B97EC"/>
					<stop  offset="0.8452" style="stop-color:#19C8EF"/>
					<stop  offset="0.9198" style="stop-color:#00ECF2"/>
				</radialGradient>
				<circle class="st6" cx="220.1" cy="60.1" r="69.7"/>
				
					<linearGradient id="SVGID_5_" gradientUnits="userSpaceOnUse" x1="-799.1369" y1="-2166.6904" x2="-659.7759" y2="-2166.6904" gradientTransform="matrix(-1 0 0 -1 -509.3682 -2106.5986)">
					<stop  offset="0" style="stop-color:#FDE0F4"/>
					<stop  offset="3.971648e-02" style="stop-color:#F2D7F5;stop-opacity:0.9603"/>
					<stop  offset="0.1492" style="stop-color:#DAC2F7;stop-opacity:0.8508"/>
					<stop  offset="0.2737" style="stop-color:#C8B3F9;stop-opacity:0.7263"/>
					<stop  offset="0.4205" style="stop-color:#BBA7FA;stop-opacity:0.5795"/>
					<stop  offset="0.6105" style="stop-color:#B3A1FB;stop-opacity:0.3895"/>
					<stop  offset="1" style="stop-color:#B19FFB;stop-opacity:0"/>
				</linearGradient>
				<circle class="st7" cx="220.1" cy="60.1" r="69.7"/>
			</g>
		</g>
	</g>
	<circle class="st2" cx="183.8" cy="49.6" r="8.5"/>
	<g>
		
			<radialGradient id="SVGID_6_" cx="-626.6445" cy="-2124.4302" r="13.6506" fx="-633.7728" fy="-2132.0684" gradientTransform="matrix(-1 0 0 -1 -509.3682 -2106.5986)" gradientUnits="userSpaceOnUse">
			<stop  offset="0" style="stop-color:#C264E9"/>
			<stop  offset="9.020855e-02" style="stop-color:#BC63E9"/>
			<stop  offset="0.2083" style="stop-color:#AC61E8"/>
			<stop  offset="0.3418" style="stop-color:#915CE8"/>
			<stop  offset="0.4857" style="stop-color:#6B56E7"/>
			<stop  offset="0.4938" style="stop-color:#6956E7"/>
			<stop  offset="0.5469" style="stop-color:#635EE8"/>
			<stop  offset="0.6292" style="stop-color:#5474E9"/>
			<stop  offset="0.7303" style="stop-color:#3B97EC"/>
			<stop  offset="0.8452" style="stop-color:#19C8EF"/>
			<stop  offset="0.9198" style="stop-color:#00ECF2"/>
		</radialGradient>
		<circle class="st8" cx="117.3" cy="17.8" r="10.6"/>
		
			<linearGradient id="SVGID_7_" gradientUnits="userSpaceOnUse" x1="-637.2624" y1="-2124.4302" x2="-616.0266" y2="-2124.4302" gradientTransform="matrix(-1 0 0 -1 -509.3682 -2106.5986)">
			<stop  offset="0" style="stop-color:#FDE0F4"/>
			<stop  offset="3.971648e-02" style="stop-color:#F2D7F5;stop-opacity:0.9603"/>
			<stop  offset="0.1492" style="stop-color:#DAC2F7;stop-opacity:0.8508"/>
			<stop  offset="0.2737" style="stop-color:#C8B3F9;stop-opacity:0.7263"/>
			<stop  offset="0.4205" style="stop-color:#BBA7FA;stop-opacity:0.5795"/>
			<stop  offset="0.6105" style="stop-color:#B3A1FB;stop-opacity:0.3895"/>
			<stop  offset="1" style="stop-color:#B19FFB;stop-opacity:0"/>
		</linearGradient>
		<circle class="st9" cx="117.3" cy="17.8" r="10.6"/>
	</g>
	<g>
		<g>
			<circle class="st3" cx="13.3" cy="12.4" r="1.4"/>
			<circle class="st3" cx="27.7" cy="12.4" r="1.4"/>
			<circle class="st3" cx="42.2" cy="12.4" r="1.4"/>
			<circle class="st3" cx="56.6" cy="12.4" r="1.4"/>
			<circle class="st3" cx="71.1" cy="12.4" r="1.4"/>
			<circle class="st3" cx="13.3" cy="26.8" r="1.4"/>
			<circle class="st3" cx="27.7" cy="26.8" r="1.4"/>
			<circle class="st3" cx="42.2" cy="26.8" r="1.4"/>
			<circle class="st3" cx="56.6" cy="26.8" r="1.4"/>
			<circle class="st3" cx="71.1" cy="26.8" r="1.4"/>
			<circle class="st3" cx="13.3" cy="41.3" r="1.4"/>
			<circle class="st3" cx="27.7" cy="41.3" r="1.4"/>
			<circle class="st3" cx="42.2" cy="41.3" r="1.4"/>
			<circle class="st3" cx="56.6" cy="41.3" r="1.4"/>
			<circle class="st3" cx="71.1" cy="41.3" r="1.4"/>
		</g>
	</g>
</g>
</svg>
