<svg id="Capa_1" data-name="Capa 1" xmlns="http://www.w3.org/2000/svg" xmlns:xlink="http://www.w3.org/1999/xlink" viewBox="0 0 1142.42 512"><defs><style>.cls-1{fill:url(#Degradado_sin_nombre_67);}.cls-2{fill:url(#Degradado_sin_nombre_77);}.cls-3{fill:#fff;}</style><linearGradient id="Degradado_sin_nombre_67" x1="808.12" y1="102.74" x2="1282.17" y2="574.8" gradientUnits="userSpaceOnUse"><stop offset="0" stop-color="#00ecf2"/><stop offset="1" stop-color="#00e287"/></linearGradient><linearGradient id="Degradado_sin_nombre_77" x1="531.73" y1="-83.62" x2="1051.4" y2="447.96" gradientUnits="userSpaceOnUse"><stop offset="0" stop-color="#9d57e4"/><stop offset="0.38" stop-color="#9a57e4"/><stop offset="0.6" stop-color="#9257e5"/><stop offset="0.79" stop-color="#8457e5"/><stop offset="0.96" stop-color="#7056e7"/><stop offset="1" stop-color="#6956e7"/></linearGradient></defs><path class="cls-1" d="M886.51,0h-1.8a69.56,69.56,0,0,0,.9,139.12c103.41,0,187.25,83.83,187.25,187.24A187.33,187.33,0,0,1,928.94,508.57l1.19,1.19c120.61-21.08,212.29-126.31,212.29-253C1142.42,115.27,1027.93.49,886.51,0Zm-.9,124.69a55.13,55.13,0,1,1,55.13-55.13A55.13,55.13,0,0,1,885.61,124.69Z"/><path class="cls-2" d="M885.61,176.2a53.94,53.94,0,0,0,0,107.88A101.45,101.45,0,0,1,918.8,481.39l1.63,1.63A155.39,155.39,0,0,0,885.61,176.2Zm0,96.69a42.75,42.75,0,1,1,42.75-42.75A42.75,42.75,0,0,1,885.61,272.89Z"/><path class="cls-3" d="M43.66,291.41q-18.64,0-31.15-10.25T0,251.88q0-21.25,15.82-32.33T66.05,208.1l16.14-.25v-7.76q0-8.88-5.19-13.7T60.8,181.7a34.39,34.39,0,0,0-15.08,3.76q-7.19,3.63-9.94,12.63H5.5q1-21,16.89-31t40.16-10q29.64,0,42.16,10.95t12.51,30v90.94H86.69l-3-22.27q-6.63,14-16.58,19.39T43.66,291.41Zm12.26-24a27.08,27.08,0,0,0,12.57-3.07,29.39,29.39,0,0,0,9.82-8,16.83,16.83,0,0,0,3.88-10.57V226.61l-13.14.25A73.58,73.58,0,0,0,52,229a27.6,27.6,0,0,0-12.7,6.69q-4.81,4.69-4.81,12.57,0,9,6.19,14.08A23.2,23.2,0,0,0,55.92,267.4Z"/><path class="cls-3" d="M150.11,288.91V159.56h35.16v30.65a53.81,53.81,0,0,1,15.26-23.39q10.75-9.76,28.15-9.76a6,6,0,0,1,2.37.25v34.9a8.5,8.5,0,0,0-2.25-.37q-16-1.38-25.27,1.94t-13.13,9.75a27.7,27.7,0,0,0-3.88,14.58v70.8Z"/><path class="cls-3" d="M244.31,288.91V268.52l63.92-83.44H247.68V159.56H352.39V180l-63.8,83.44h64.3v25.52Z"/><path class="cls-3" d="M429.7,291.41q-19,0-33.09-8.13a55.63,55.63,0,0,1-21.83-23Q367,245.38,367,225t7.69-35.65a57.19,57.19,0,0,1,21.77-23.77q14.07-8.52,33.34-8.51,19,0,33,8.38A56.24,56.24,0,0,1,484.5,189q7.62,15.19,7.63,36,0,19.51-7.39,34.46a55.67,55.67,0,0,1-21.39,23.46Q449.34,291.41,429.7,291.41Zm.13-27.14q9.5,0,15.38-5.63a32.73,32.73,0,0,0,8.57-14.83,71,71,0,0,0,2.69-20.07A74,74,0,0,0,454,204.41a31.61,31.61,0,0,0-8.25-14.76Q440,184,429.83,184q-9.76,0-15.7,5.39a30.73,30.73,0,0,0-8.64,14.38,69.92,69.92,0,0,0-2.68,20,76.34,76.34,0,0,0,2.44,19.45,32.38,32.38,0,0,0,8.38,15.2Q419.57,264.27,429.83,264.27Z"/><path class="cls-3" d="M622.73,159.56,574.19,288.91H547.8L499.13,159.56h33L560.43,242h1l27.9-82.44Z"/><path class="cls-3" d="M60.92,511.75q-22.52-.25-36.28-11.51T10.88,466V379.64h9.76V466q0,16.28,9.7,26.27t30,10q17.88,0,28.89-9.38t11-28.9V379.64H110V509.25h-9l-.75-23.77a35.26,35.26,0,0,1-13.38,19.2Q76.94,511.88,60.92,511.75Z"/><path class="cls-3" d="M156.24,509.5V380.15h9v19.26a48,48,0,0,1,13.51-15.2q8.76-6.57,23.77-6.57a50.31,50.31,0,0,1,15.2,2.44,44.13,44.13,0,0,1,13.88,7.26,28.42,28.42,0,0,1,9.07,11.82,41.61,41.61,0,0,1,16.2-15.82,47.73,47.73,0,0,1,23.46-5.7,59.35,59.35,0,0,1,13.82,1.76,35.63,35.63,0,0,1,13.7,6.69q6.39,4.94,10.45,14.45t4.06,25.14V509.5h-9.75V425.68q0-15.63-4.57-24t-11.89-11.44a39.71,39.71,0,0,0-15.82-3.13,51.38,51.38,0,0,0-15.83,2.75,31.74,31.74,0,0,0-14.44,9.76q-6,7-6,19.77V509.5H234.3V415.42q0-9.5-5-15.76a31.25,31.25,0,0,0-12.38-9.38,37.25,37.25,0,0,0-14.64-3.13,46.31,46.31,0,0,0-16.51,3.19,32.63,32.63,0,0,0-14.08,10.32Q166,407.8,166,419.43V509.5Z"/><path class="cls-3" d="M400.43,512q-19.14,0-30.33-9.51t-11.2-26q0-21.77,14.07-31.71t46.23-11.07l29.89-1V420.18q0-14.9-9.06-24t-28-9.07q-14.4,0-24.15,6.69T376,414.67H365.53q1-16.76,12.64-26.89t34.4-10.14q20.76,0,33.46,10.32t12.7,32V509.5h-9l-.37-26.27q-8.39,16.14-21.52,22.45A62.51,62.51,0,0,1,400.43,512Zm1.63-9.26a48.65,48.65,0,0,0,16.39-2.94,59.81,59.81,0,0,0,15.2-8,46.52,46.52,0,0,0,11.19-11.33,22.4,22.4,0,0,0,4.25-12.76V442.45L424,443q-20.64.38-32.59,3.87t-17.07,10.57q-5.13,7.08-5.13,18.33,0,12.76,9,19.89T402.06,502.74Z"/><path class="cls-3" d="M552.17,388.65H522.52v91.82q0,9,1.57,13.08a8,8,0,0,0,5.88,5.13,55.27,55.27,0,0,0,12.45,1.06h11v8.51a29,29,0,0,1-6.69,1q-4.32.25-9.07.25-14.62,0-19.83-6.76t-5.19-22.27V388.65h-21v-8.5h21l2-36.28h7.88v36.28h29.65Z"/><path class="cls-3" d="M637.49,377.64q19,0,32.34,9.07t17.2,28l-10.64.5a31.53,31.53,0,0,0-12.32-20.39q-10.07-7.62-25.33-7.63-21.27,0-34.34,14.14T591.33,445q0,26,11.51,41.9t35.65,15.89a42.61,42.61,0,0,0,25-7.44A30.15,30.15,0,0,0,676.39,475H687a41.79,41.79,0,0,1-15.58,26.83q-12.83,10.2-34,10.2-25.4,0-41-16.33T581,445.45q0-20.4,6.12-35.59a50.68,50.68,0,0,1,18.71-23.71Q618.35,377.65,637.49,377.64Z"/><path class="cls-3" d="M726.06,509.5V323.6h9v75.81q5.13-9.26,16.52-15.51t27.14-6.26a55.93,55.93,0,0,1,23.08,4.57,39.5,39.5,0,0,1,16.14,12.7,31,31,0,0,1,5.94,18.76V509.5h-9.75V417.42q0-14.25-9.57-22.26t-26.09-8a62.26,62.26,0,0,0-21.14,3.5,35.08,35.08,0,0,0-15.63,10.64q-5.9,7.13-5.89,18.14V509.5Z"/></svg>