<?xml version="1.0" encoding="utf-8"?>
<!-- Generator: Adobe Illustrator 25.2.3, SVG Export Plug-In . SVG Version: 6.00 Build 0)  -->
<svg version="1.1" id="Capa_1" xmlns="http://www.w3.org/2000/svg" xmlns:xlink="http://www.w3.org/1999/xlink" x="0px" y="0px"
	 viewBox="0 0 1142.4 512" style="enable-background:new 0 0 1142.4 512;" xml:space="preserve">
<style type="text/css">
	.st0{fill:url(#SVGID_1_);}
	.st1{fill:url(#SVGID_2_);}
	.st2{fill:#0B1623;}
</style>
<linearGradient id="SVGID_1_" gradientUnits="userSpaceOnUse" x1="808.121" y1="409.261" x2="1282.171" y2="-62.799" gradientTransform="matrix(1 0 0 -1 0 512)">
	<stop  offset="0" style="stop-color:#00ECF2"/>
	<stop  offset="1" style="stop-color:#00E287"/>
</linearGradient>
<path class="st0" d="M886.5,0h-1.8c-38.4,0.2-69.4,31.6-69.1,70s31.6,69.4,70,69.1c103.4,0,187.3,83.8,187.3,187.2
	c0,86.7-59.6,162.1-143.9,182.2l1.2,1.2c120.6-21.1,212.3-126.3,212.3-253C1142.4,115.3,1027.9,0.5,886.5,0z M885.6,124.7
	c-30.4,0-55.1-24.7-55.1-55.1s24.7-55.1,55.1-55.1s55.1,24.7,55.1,55.1S916.1,124.7,885.6,124.7L885.6,124.7z"/>
<linearGradient id="SVGID_2_" gradientUnits="userSpaceOnUse" x1="531.7215" y1="595.6117" x2="1051.3915" y2="64.0317" gradientTransform="matrix(1 0 0 -1 0 512)">
	<stop  offset="0" style="stop-color:#9D57E4"/>
	<stop  offset="0.38" style="stop-color:#9A57E4"/>
	<stop  offset="0.6" style="stop-color:#9257E5"/>
	<stop  offset="0.79" style="stop-color:#8457E5"/>
	<stop  offset="0.96" style="stop-color:#7056E7"/>
	<stop  offset="1" style="stop-color:#6956E7"/>
</linearGradient>
<path class="st1" d="M885.6,176.2c-29.8,0-53.9,24.2-53.9,54c0,29.8,24.1,53.9,53.9,53.9c56,0,101.4,45.4,101.4,101.5
	c0,43.2-27.4,81.7-68.2,95.8l1.6,1.6c83.6-19.3,135.8-102.7,116.6-186.3C1020.8,226.2,958,176.2,885.6,176.2z M885.6,272.9
	c-23.6,0-42.8-19.1-42.8-42.8s19.1-42.8,42.8-42.8s42.8,19.1,42.8,42.8S909.2,272.9,885.6,272.9L885.6,272.9z"/>
<path class="st2" d="M43.7,291.4c-12.4,0-22.8-3.4-31.1-10.2C4.2,274.3,0,264.6,0,251.9c0-14.2,5.3-24.9,15.8-32.3
	c10.5-7.4,27.3-11.2,50.2-11.4l16.1-0.2v-7.8c0-5.9-1.7-10.5-5.2-13.7s-8.9-4.8-16.2-4.7c-5.2,0.1-10.4,1.4-15.1,3.8
	c-4.8,2.4-8.1,6.6-9.9,12.6H5.5c0.7-14,6.3-24.3,16.9-31s24-10,40.2-10c19.8,0,33.8,3.6,42.2,10.9c8.3,7.3,12.5,17.3,12.5,30V289
	H86.7l-3-22.3c-4.4,9.3-9.9,15.8-16.6,19.4S52.7,291.5,43.7,291.4z M55.9,267.4c4.4,0,8.7-1,12.6-3.1c3.8-1.9,7.2-4.7,9.8-8
	c2.5-3,3.8-6.7,3.9-10.6v-19.2L69,226.9c-5.7,0-11.5,0.8-17,2.1c-4.7,1.1-9.1,3.4-12.7,6.7c-3.2,3.1-4.8,7.3-4.8,12.6
	c0,6,2.1,10.7,6.2,14.1C45,265.8,50.4,267.6,55.9,267.4L55.9,267.4z"/>
<path class="st2" d="M150.1,288.9V159.6h35.2v30.6c2.9-9,8.2-17.1,15.3-23.4c7.2-6.5,16.6-9.8,28.1-9.8c0.8-0.1,1.6,0,2.4,0.2v34.9
	c-0.7-0.2-1.5-0.3-2.2-0.4c-10.7-0.9-19.1-0.3-25.3,1.9c-6.2,2.2-10.6,5.5-13.1,9.8c-2.6,4.4-4,9.5-3.9,14.6v70.8H150.1z"/>
<path class="st2" d="M244.3,288.9v-20.4l63.9-83.4h-60.5v-25.5h104.7V180l-63.8,83.4h64.3V289L244.3,288.9z"/>
<path class="st2" d="M429.7,291.4c-12.7,0-23.7-2.7-33.1-8.1c-9.4-5.4-16.9-13.4-21.8-23c-5.2-9.9-7.8-21.7-7.8-35.3
	s2.6-25.5,7.7-35.6c4.8-9.8,12.4-18.1,21.8-23.8c9.4-5.7,20.5-8.5,33.3-8.5c12.7,0,23.7,2.8,33,8.4c9.4,5.6,16.9,13.8,21.7,23.5
	c5.1,10.1,7.6,22.1,7.6,36c0,13-2.5,24.5-7.4,34.5c-4.7,9.7-12.1,17.9-21.4,23.5C454,288.6,442.8,291.4,429.7,291.4z M429.8,264.3
	c6.3,0,11.5-1.9,15.4-5.6c4.1-4.1,7.1-9.2,8.6-14.8c1.9-6.5,2.8-13.3,2.7-20.1c0-6.5-0.8-13-2.5-19.3c-1.4-5.6-4.2-10.7-8.2-14.8
	c-3.8-3.8-9.1-5.7-15.9-5.7c-6.5,0-11.7,1.8-15.7,5.4c-4.2,3.9-7.1,8.9-8.6,14.4c-1.9,6.5-2.8,13.2-2.7,20c0,6.6,0.8,13.1,2.4,19.4
	c1.4,5.7,4.3,11,8.4,15.2C417.6,262.3,423,264.3,429.8,264.3L429.8,264.3z"/>
<path class="st2" d="M622.7,159.6l-48.5,129.4h-26.4l-48.7-129.4h33l28.3,82.4h1l27.9-82.4H622.7z"/>
<path class="st2" d="M60.9,511.8c-15-0.2-27.1-4-36.3-11.5S10.9,481.3,10.9,466v-86.4h9.8V466c0,10.9,3.2,19.6,9.7,26.3
	c6.5,6.7,16.5,10,30,10c11.9,0,21.5-3.1,28.9-9.4c7.3-6.3,11-15.9,11-28.9v-84.3h9.8v129.6h-9l-0.8-23.8
	c-2.1,7.7-6.9,14.5-13.4,19.2C80.2,509.5,71.6,511.8,60.9,511.8z"/>
<path class="st2" d="M156.2,509.5V380.1h9v19.3c3.4-6,8-11.2,13.5-15.2c5.8-4.4,13.8-6.6,23.8-6.6c5.2,0,10.3,0.9,15.2,2.4
	c5,1.6,9.7,4,13.9,7.3c4,3.1,7.2,7.1,9.1,11.8c3.8-6.7,9.4-12.1,16.2-15.8c7.2-3.9,15.3-5.8,23.5-5.7c4.7,0,9.3,0.6,13.8,1.8
	c5,1.2,9.7,3.5,13.7,6.7c4.3,3.3,7.7,8.1,10.5,14.5c2.7,6.3,4.1,14.7,4.1,25.1v83.8h-9.8v-83.8c0-10.4-1.5-18.4-4.6-24
	c-3-5.6-7-9.4-11.9-11.4c-5-2.1-10.4-3.2-15.8-3.1c-5.4,0.1-10.7,1-15.8,2.8c-5.6,1.8-10.6,5.2-14.4,9.8c-4,4.7-6,11.3-6,19.8v90.1
	h-9.8v-94.1c0-6.3-1.7-11.6-5-15.8c-3.3-4.1-7.5-7.3-12.4-9.4c-4.6-2-9.6-3.1-14.6-3.1c-5.7,0-11.2,1.1-16.5,3.2
	c-5.5,2.1-10.4,5.7-14.1,10.3c-3.8,4.8-5.7,11-5.7,18.8v90.1H156.2z"/>
<path class="st2" d="M400.4,512c-12.8,0-22.9-3.2-30.3-9.5c-7.5-6.3-11.2-15-11.2-26c0-14.5,4.7-25.1,14.1-31.7
	c9.4-6.6,24.8-10.3,46.2-11.1l29.9-1v-12.5c0-9.9-3-17.9-9.1-24s-15.4-9.1-28-9.1c-9.6,0-17.6,2.2-24.1,6.7
	c-6.5,4.5-10.5,11.4-11.9,20.9h-10.5c0.7-11.2,4.9-20.1,12.6-26.9s19.2-10.1,34.4-10.1c13.8,0,25,3.4,33.5,10.3
	c8.5,6.9,12.7,17.5,12.7,32v89.5h-9l-0.4-26.3c-5.6,10.8-12.8,18.2-21.5,22.5C419.3,509.8,409.9,512,400.4,512z M402.1,502.7
	c5.6,0,11.1-1,16.4-2.9c5.4-1.9,10.5-4.6,15.2-8c4.4-3.1,8.1-6.9,11.2-11.3c2.7-3.7,4.2-8.2,4.2-12.8v-25.3L424,443
	c-13.8,0.3-24.6,1.5-32.6,3.9c-8,2.3-13.7,5.8-17.1,10.6c-3.4,4.7-5.1,10.8-5.1,18.3c0,8.5,3,15.1,9,19.9S392.2,502.8,402.1,502.7z"
	/>
<path class="st2" d="M552.2,388.6h-29.6v91.8c0,6,0.5,10.4,1.6,13.1c0.9,2.6,3.2,4.6,5.9,5.1c4.1,0.8,8.3,1.2,12.5,1.1h11v8.5
	c-2.2,0.6-4.4,0.9-6.7,1c-2.9,0.2-5.9,0.2-9.1,0.2c-9.7,0-16.4-2.3-19.8-6.8c-3.5-4.5-5.2-11.9-5.2-22.3v-91.8h-21v-8.5h21l2-36.3
	h7.9v36.3h29.7L552.2,388.6z"/>
<path class="st2" d="M637.5,377.6c12.7,0,23.4,3,32.3,9.1c8.9,6,14.6,15.4,17.2,28l-10.6,0.5c-1.3-8.1-5.7-15.5-12.3-20.4
	c-6.7-5.1-15.2-7.6-25.3-7.6c-14.2,0-25.6,4.7-34.3,14.1c-8.7,9.4-13.1,24-13.1,43.7c0,17.3,3.8,31.3,11.5,41.9
	c7.7,10.6,19.6,15.9,35.7,15.9c8.9,0.2,17.6-2.4,25-7.4c6.9-4.7,11.6-12.1,12.9-20.4H687c-1.6,10.6-7.1,20.2-15.6,26.8
	c-8.6,6.8-19.9,10.2-34,10.2c-16.9,0-30.6-5.4-41-16.3c-10.4-10.9-15.5-27.6-15.4-50.2c0-13.6,2-25.5,6.1-35.6
	c3.7-9.6,10.2-17.9,18.7-23.7C614.2,380.5,624.7,377.6,637.5,377.6z"/>
<path class="st2" d="M726.1,509.5V323.6h9v75.8c3.4-6.2,8.9-11.3,16.5-15.5c7.6-4.2,16.6-6.3,27.1-6.3c7.9-0.1,15.8,1.4,23.1,4.6
	c6.4,2.7,12,7.1,16.1,12.7c4,5.4,6,12,5.9,18.8v95.8h-9.8v-92.1c0-9.5-3.2-16.9-9.6-22.3c-6.4-5.3-15.1-8-26.1-8
	c-7.2-0.1-14.3,1.1-21.1,3.5c-6.1,2-11.5,5.7-15.6,10.6c-3.9,4.8-5.9,10.8-5.9,18.1v90.1H726.1z"/>
</svg>
