<svg xmlns="http://www.w3.org/2000/svg" viewBox="0 0 50 50"><defs><style>.cls-1{fill:none;}.cls-2{fill:#161c27;}.cls-3{fill:#fff;}</style></defs><g id="Capa_2" data-name="Capa 2"><g id="Capa_2-2" data-name="Capa 2"><rect class="cls-1" width="50" height="50"/><path class="cls-2" d="M44.58,34.17A22,22,0,0,1,25,46.67,21.64,21.64,0,0,1,15.83,5.42a21.92,21.92,0,0,0-2.08,9.16A21.65,21.65,0,0,0,35.42,36.25,19.1,19.1,0,0,0,44.58,34.17Z"/><path class="cls-3" d="M25,48.75A23.75,23.75,0,1,1,48.75,25,23.74,23.74,0,0,1,25,48.75ZM25,5.42A19.58,19.58,0,1,0,44.58,25,19.56,19.56,0,0,0,25,5.42Z"/><path class="cls-3" d="M46.67,25a22,22,0,0,1-2.09,9.17,21.89,21.89,0,0,1-9.16,2.08A21.52,21.52,0,0,1,13.75,14.58a21.92,21.92,0,0,1,2.08-9.16A22.75,22.75,0,0,1,25,3.33,21.53,21.53,0,0,1,46.67,25Z"/></g></g></svg>