<?xml version="1.0" encoding="utf-8"?>
<!-- Generator: Adobe Illustrator 24.2.1, SVG Export Plug-In . SVG Version: 6.00 Build 0)  -->
<svg version="1.1" id="Capa_1" xmlns="http://www.w3.org/2000/svg" xmlns:xlink="http://www.w3.org/1999/xlink" x="0px" y="0px"
	 viewBox="0 0 24 24" style="enable-background:new 0 0 24 24;" xml:space="preserve">
<style type="text/css">
	.st0{fill:none;}
	.st1{fill:#6956E7;}
</style>
<rect class="st0" width="24" height="24"/>
<path class="st1" d="M23.8,11.8h-23l3.1-3.3C4,8.4,4,8.3,3.9,8.2s-0.2-0.1-0.3,0l-3.5,3.7C0,12,0,12.1,0.1,12.2l3.5,3.7
	c0,0,0.1,0.1,0.2,0.1c0.1,0,0.1,0,0.2-0.1c0.1-0.1,0.1-0.2,0-0.3l-3.1-3.3h23c0.1,0,0.2-0.1,0.2-0.2C24,11.9,23.9,11.8,23.8,11.8z"
	/>
</svg>
