<?xml version="1.0" encoding="utf-8"?>
<!-- Generator: Adobe Illustrator 24.2.1, SVG Export Plug-In . SVG Version: 6.00 Build 0)  -->
<svg version="1.1" id="Capa_1" xmlns="http://www.w3.org/2000/svg" xmlns:xlink="http://www.w3.org/1999/xlink" x="0px" y="0px"
	 viewBox="0 0 1721 771.5" style="enable-background:new 0 0 1721 771.5;" xml:space="preserve">
<style type="text/css">
	.st0{fill:url(#SVGID_1_);}
	.st1{fill:url(#SVGID_2_);}
	.st2{fill:#FFFFFF;}
</style>
<g>
	<g>
		
			<linearGradient id="SVGID_1_" gradientUnits="userSpaceOnUse" x1="1217.4221" y1="616.5966" x2="1931.6218" y2="-94.6149" gradientTransform="matrix(1 0 0 -1 0 771.4)">
			<stop  offset="0" style="stop-color:#0CECF2"/>
			<stop  offset="0.3196" style="stop-color:#08BADF"/>
			<stop  offset="0.6182" style="stop-color:#0592D0"/>
			<stop  offset="0.8549" style="stop-color:#037AC7"/>
			<stop  offset="1" style="stop-color:#0271C4"/>
		</linearGradient>
		<path class="st0" d="M1335.5,0c-0.4,0-0.9,0-1.4,0c-0.4,0-0.9,0-1.4,0c-57.3,0.7-103.4,47.4-103.4,104.8
			c0,57.9,46.9,104.8,104.8,104.8c155.8,0,282.1,126.3,282.1,282.1c0,133.3-92.5,245.1-216.8,274.5l1.8,1.8
			c181.7-31.8,319.8-190.3,319.8-381.1C1721.1,173.7,1548.6,0.7,1335.5,0z M1334.2,187.9c-45.9,0-83.1-37.2-83.1-83.1
			s37.2-83.1,83.1-83.1s83.1,37.2,83.1,83.1C1417.2,150.7,1380.1,187.9,1334.2,187.9z"/>
		
			<linearGradient id="SVGID_2_" gradientUnits="userSpaceOnUse" x1="801.0155" y1="897.3612" x2="1583.9458" y2="96.5011" gradientTransform="matrix(1 0 0 -1 0 771.4)">
			<stop  offset="0" style="stop-color:#AD64E6"/>
			<stop  offset="0.213" style="stop-color:#A462E6"/>
			<stop  offset="0.5603" style="stop-color:#8C5EE5"/>
			<stop  offset="0.9965" style="stop-color:#6457E3"/>
			<stop  offset="1" style="stop-color:#6457E3"/>
		</linearGradient>
		<path class="st1" d="M1334.2,265.5c-44.9,0-81.3,36.4-81.3,81.3s36.4,81.3,81.3,81.3c84.4,0,152.8,68.4,152.8,152.8
			c0,66.9-43,123.7-102.8,144.4l2.5,2.5c104-23.8,181.6-116.9,181.6-228.2C1568.3,370.3,1463.5,265.5,1334.2,265.5z M1334.2,411.1
			c-35.6,0-64.4-28.8-64.4-64.4c0-35.6,28.8-64.4,64.4-64.4s64.4,28.8,64.4,64.4C1398.6,382.3,1369.8,411.1,1334.2,411.1z"/>
	</g>
	<g>
		<g>
			<path class="st2" d="M65.7,439.1c-18.7,0-34.4-5.2-46.9-15.5C6.2,413.3,0,398.6,0,379.5c0-21.4,7.9-37.6,23.8-48.7
				c15.9-11.1,41.1-16.9,75.7-17.2l24.3-0.4v-11.7c0-8.9-2.6-15.8-7.8-20.6c-5.2-4.8-13.4-7.2-24.4-7.1c-7.9,0.1-15.5,2-22.7,5.7
				c-7.2,3.6-12.2,10-15,19H8.3c1-21.1,9.5-36.7,25.4-46.7c16-10.1,36.1-15.1,60.5-15.1c29.8,0,50.9,5.5,63.5,16.5
				c12.6,11,18.8,26,18.8,45.1v137h-46l-4.5-33.5c-6.7,14.1-15,23.8-25,29.2S79.3,439.1,65.7,439.1z M84.2,402.9
				c6.7,0,13-1.5,18.9-4.6c6-3.1,10.9-7.1,14.8-12.1s5.8-10.3,5.8-15.9v-28.8l-19.8,0.4c-9.2,0.1-17.7,1.2-25.6,3.2
				c-7.9,2-14.3,5.4-19.1,10.1s-7.3,11-7.3,18.9c0,9,3.1,16.1,9.3,21.2C67.5,400.3,75.1,402.9,84.2,402.9z"/>
			<path class="st2" d="M226.1,435.3V240.4h53v46.2c4.5-13.7,12.2-25.4,23-35.2c10.8-9.8,24.9-14.7,42.4-14.7c2,0,3.2,0.1,3.6,0.4
				v52.6c-0.6-0.3-1.8-0.4-3.4-0.6c-16.1-1.4-28.8-0.4-38.1,2.9s-15.9,8.2-19.8,14.7c-3.9,6.5-5.8,13.8-5.8,22v106.7h-54.9V435.3z"
				/>
			<path class="st2" d="M368,435.3v-30.7l96.3-125.7h-91.2v-38.4h157.8v30.7l-96.1,125.7h96.9v38.4H368z"/>
			<path class="st2" d="M647.3,439.1c-19.1,0-35.7-4.1-49.9-12.3c-14.1-8.2-25.1-19.7-32.9-34.7c-7.8-14.9-11.7-32.7-11.7-53.1
				c0-20.5,3.9-38.4,11.6-53.7c7.7-15.3,18.7-27.3,32.8-35.8c14.1-8.5,30.9-12.8,50.2-12.8c19.1,0,35.7,4.2,49.8,12.6
				c14.1,8.4,24.9,20.3,32.6,35.5c7.7,15.3,11.5,33.3,11.5,54.2c0,19.6-3.7,36.9-11.1,51.9c-7.4,15-18.2,26.8-32.2,35.3
				C683.9,434.8,667,439.1,647.3,439.1z M647.5,398.2c9.5,0,17.3-2.8,23.2-8.5s10.2-13.1,12.9-22.3c2.7-9.2,4.1-19.3,4.1-30.2
				c0-10.3-1.2-20-3.7-29.1c-2.5-9.1-6.6-16.5-12.4-22.2c-5.8-5.7-13.9-8.6-24-8.6c-9.8,0-17.7,2.7-23.7,8.1
				c-6,5.4-10.3,12.6-13,21.7c-2.7,9.1-4.1,19.1-4.1,30.2c0,10.2,1.2,19.9,3.7,29.3c2.4,9.4,6.7,17,12.6,22.9
				C629.1,395.2,637.2,398.2,647.5,398.2z"/>
			<path class="st2" d="M938.1,240.4L865,435.3h-39.8l-73.3-194.9h49.8l42.6,124.2h1.5l42-124.2L938.1,240.4L938.1,240.4z"/>
			<path class="st2" d="M91.7,771c-22.6-0.3-40.8-6-54.7-17.3c-13.8-11.3-20.7-28.5-20.7-51.6v-130H31v130
				c0,16.3,4.9,29.5,14.6,39.6c9.7,10.1,24.8,15.1,45.1,15.1c18,0,32.5-4.7,43.5-14.1c11.1-9.4,16.6-23.9,16.6-43.5v-127h14.7v195.3
				h-13.6l-1.1-35.8c-3.5,12.1-10.2,21.7-20.2,28.9C120.8,767.6,107.8,771.1,91.7,771z"/>
			<path class="st2" d="M235.3,767.6V572.7h13.6v29c4.8-8.7,11.6-16.3,20.4-22.9c8.8-6.6,20.7-9.9,35.8-9.9c7.5,0,15.2,1.2,22.9,3.7
				s14.7,6.1,20.9,10.9c6.2,4.8,10.8,10.8,13.7,17.8c5.9-10.2,14-18.1,24.4-23.8s22.1-8.6,35.3-8.6c6.5,0,13.5,0.9,20.8,2.6
				c7.3,1.8,14.2,5.1,20.6,10.1c6.4,5,11.7,12.2,15.7,21.8c4.1,9.6,6.1,22.2,6.1,37.9v126.3h-14.7V641.3c0-15.7-2.3-27.7-6.9-36.1
				c-4.6-8.4-10.6-14.1-17.9-17.2c-7.3-3.1-15.3-4.7-23.8-4.7c-7.4,0-15.4,1.4-23.8,4.1c-8.5,2.8-15.7,7.7-21.8,14.7
				c-6,7-9,17-9,29.8v135.7h-14.7V625.9c0-9.5-2.5-17.5-7.5-23.7c-5-6.3-11.2-11-18.7-14.1c-7.4-3.1-14.8-4.7-22.1-4.7
				c-8.2,0-16.5,1.6-24.9,4.8c-8.4,3.2-15.5,8.4-21.2,15.6c-5.7,7.2-8.6,16.6-8.6,28.3v135.7h-14.6V767.6z"/>
			<path class="st2" d="M603.2,771.4c-19.2,0-34.5-4.8-45.7-14.3s-16.9-22.6-16.9-39.2c0-21.9,7.1-37.8,21.2-47.8
				c14.1-10,37.3-15.6,69.6-16.7l45-1.5v-18.8c0-14.9-4.6-27-13.7-36.1c-9.1-9.1-23.2-13.7-42.1-13.7c-14.5,0-26.6,3.4-36.4,10.1
				c-9.8,6.7-15.8,17.2-17.9,31.4h-15.8c1-16.8,7.3-30.3,19-40.5s29-15.3,51.8-15.3c20.9,0,37.7,5.2,50.4,15.5
				c12.8,10.4,19.1,26.4,19.1,48.2v134.9h-13.3l-0.6-39.6c-8.4,16.2-19.2,27.5-32.4,33.8C631.3,768.2,617.5,771.4,603.2,771.4z
				 M605.7,757.4c8.2,0,16.4-1.5,24.7-4.4s15.9-7,22.9-12.1s12.6-10.8,16.9-17.1c4.3-6.3,6.4-12.7,6.4-19.2v-38.1l-37.9,0.8
				c-20.7,0.4-37.1,2.3-49.1,5.8s-20.6,8.8-25.7,15.9c-5.2,7.1-7.7,16.3-7.7,27.6c0,12.8,4.5,22.8,13.6,30
				C578.7,753.9,590.7,757.4,605.7,757.4z"/>
			<path class="st2" d="M831.8,585.6h-44.7v138.3c0,9,0.8,15.6,2.4,19.7c1.6,4.1,4.5,6.7,8.9,7.7c4.3,1.1,10.6,1.6,18.8,1.6h16.6
				v12.8c-2.4,0.8-5.7,1.3-10.1,1.5c-4.3,0.3-8.9,0.4-13.7,0.4c-14.7,0-24.7-3.4-29.9-10.2s-7.8-18-7.8-33.5V585.6h-31.7v-12.9h31.7
				l3-54.7h11.9v54.7h44.7v12.9H831.8z"/>
			<path class="st2" d="M960.4,569c19.1,0,35.3,4.6,48.7,13.7c13.4,9.1,22,23.2,25.9,42.1l-16,0.8c-2.3-12.8-8.5-23.1-18.6-30.7
				c-10.1-7.7-22.8-11.5-38.2-11.5c-21.4,0-38.6,7.1-51.7,21.3s-19.7,36.1-19.7,65.8c0,26.1,5.8,47.2,17.3,63.1
				c11.6,16,29.5,23.9,53.7,23.9c14.3,0,26.9-3.7,37.6-11.2s17.2-17.7,19.5-30.6h16c-2.8,16.7-10.6,30.2-23.5,40.4
				s-29.9,15.4-51.2,15.4c-25.5,0-46.1-8.2-61.7-24.6c-15.6-16.4-23.5-41.6-23.5-75.7c0-20.5,3.1-38.4,9.2-53.6
				c6.2-15.3,15.6-27.2,28.2-35.7C925.2,573.2,941.1,569,960.4,569z"/>
			<path class="st2" d="M1093.8,767.6V487.5h13.6v114.2c5.2-9.3,13.4-17.1,24.9-23.4c11.4-6.3,25.1-9.4,40.9-9.4
				c12.9,0,24.5,2.3,34.8,6.9c10.2,4.6,18.3,11,24.3,19.1c6,8.2,9,17.6,9,28.3v144.4h-14.8V628.9c0-14.3-4.8-25.5-14.4-33.5
				s-22.7-12.1-39.3-12.1c-11.4,0-22.1,1.8-31.9,5.3s-17.7,8.9-23.6,16c-5.9,7.2-8.9,16.3-8.9,27.3v135.7H1093.8z"/>
		</g>
	</g>
</g>
</svg>
