<?xml version="1.0" encoding="utf-8"?>
<!-- Generator: Adobe Illustrator 24.2.1, SVG Export Plug-In . SVG Version: 6.00 Build 0)  -->
<svg version="1.1" id="Capa_1" xmlns="http://www.w3.org/2000/svg" xmlns:xlink="http://www.w3.org/1999/xlink" x="0px" y="0px"
	 viewBox="0 0 2048 1024" style="enable-background:new 0 0 2048 1024;" xml:space="preserve">
<style type="text/css">
	.st0{fill:url(#SVGID_1_);}
	.st1{fill:url(#SVGID_2_);}
	.st2{fill:#161C27;}
</style>
<g>
	<g>
		<linearGradient id="SVGID_1_" gradientUnits="userSpaceOnUse" x1="1380.9285" y1="281.097" x2="2095.1282" y2="992.3085">
			<stop  offset="0" style="stop-color:#0CECF2"/>
			<stop  offset="0.3196" style="stop-color:#08BADF"/>
			<stop  offset="0.6182" style="stop-color:#0592D0"/>
			<stop  offset="0.8549" style="stop-color:#037AC7"/>
			<stop  offset="1" style="stop-color:#0271C4"/>
		</linearGradient>
		<path class="st0" d="M1499,126.3c-0.4,0-0.9,0-1.4,0c-0.4,0-0.9,0-1.4,0c-57.3,0.7-103.4,47.4-103.4,104.8
			c0,57.9,46.9,104.8,104.8,104.8c155.8,0,282.1,126.3,282.1,282.1c0,133.3-92.5,245.1-216.8,274.5l1.8,1.8
			c181.7-31.8,319.8-190.3,319.8-381.1C1884.6,300,1712.1,127,1499,126.3z M1497.7,314.2c-45.9,0-83.1-37.2-83.1-83.1
			c0-45.9,37.2-83.1,83.1-83.1c45.9,0,83.1,37.2,83.1,83.1C1580.7,277,1543.6,314.2,1497.7,314.2z"/>
		<linearGradient id="SVGID_2_" gradientUnits="userSpaceOnUse" x1="964.516" y1="0.3383" x2="1747.4463" y2="801.1984">
			<stop  offset="0" style="stop-color:#AD64E6"/>
			<stop  offset="0.213" style="stop-color:#A462E6"/>
			<stop  offset="0.5603" style="stop-color:#8C5EE5"/>
			<stop  offset="0.9965" style="stop-color:#6457E3"/>
			<stop  offset="1" style="stop-color:#6457E3"/>
		</linearGradient>
		<path class="st1" d="M1497.7,391.8c-44.9,0-81.3,36.4-81.3,81.3s36.4,81.3,81.3,81.3c84.4,0,152.8,68.4,152.8,152.8
			c0,66.9-43,123.7-102.8,144.4l2.5,2.5c104-23.8,181.6-116.9,181.6-228.2C1731.8,496.6,1627,391.8,1497.7,391.8z M1497.7,537.4
			c-35.6,0-64.4-28.8-64.4-64.4s28.8-64.4,64.4-64.4c35.6,0,64.4,28.8,64.4,64.4S1533.3,537.4,1497.7,537.4z"/>
	</g>
	<g>
		<g>
			<path class="st2" d="M229.2,565.4c-18.7,0-34.4-5.2-46.9-15.5c-12.6-10.3-18.8-25-18.8-44.1c0-21.4,7.9-37.6,23.8-48.7
				c15.9-11.1,41.1-16.9,75.7-17.2l24.3-0.4v-11.7c0-8.9-2.6-15.8-7.8-20.6c-5.2-4.8-13.4-7.2-24.4-7.1c-7.9,0.1-15.5,2-22.7,5.7
				c-7.2,3.6-12.2,10-15,19h-45.6c1-21.1,9.5-36.7,25.4-46.7c16-10.1,36.1-15.1,60.5-15.1c29.8,0,50.9,5.5,63.5,16.5
				c12.6,11,18.8,26,18.8,45.1v137h-46l-4.5-33.5c-6.7,14.1-15,23.8-25,29.2C254.5,562.7,242.8,565.4,229.2,565.4z M247.7,529.2
				c6.7,0,13-1.5,18.9-4.6c6-3.1,10.9-7.1,14.8-12.1c3.9-5,5.8-10.3,5.8-15.9v-28.8l-19.8,0.4c-9.2,0.1-17.7,1.2-25.6,3.2
				c-7.9,2-14.3,5.4-19.1,10.1c-4.8,4.7-7.3,11-7.3,18.9c0,9,3.1,16.1,9.3,21.2C231,526.6,238.6,529.2,247.7,529.2z"/>
			<path class="st2" d="M389.6,561.6V366.7h53v46.2c4.5-13.7,12.2-25.4,23-35.2c10.8-9.8,24.9-14.7,42.4-14.7c2,0,3.2,0.1,3.6,0.4
				v52.6c-0.6-0.3-1.8-0.4-3.4-0.6c-16.1-1.4-28.8-0.4-38.1,2.9c-9.3,3.3-15.9,8.2-19.8,14.7c-3.9,6.5-5.8,13.8-5.8,22v106.7H389.6z
				"/>
			<path class="st2" d="M531.5,561.6v-30.7l96.3-125.7h-91.2v-38.4h157.8v30.7l-96.1,125.7h96.9v38.4H531.5z"/>
			<path class="st2" d="M810.8,565.4c-19.1,0-35.7-4.1-49.9-12.3c-14.1-8.2-25.1-19.7-32.9-34.7c-7.8-14.9-11.7-32.7-11.7-53.1
				c0-20.5,3.9-38.4,11.6-53.7s18.7-27.3,32.8-35.8c14.1-8.5,30.9-12.8,50.2-12.8c19.1,0,35.7,4.2,49.8,12.6
				c14.1,8.4,24.9,20.3,32.6,35.5c7.7,15.3,11.5,33.3,11.5,54.2c0,19.6-3.7,36.9-11.1,51.9c-7.4,15-18.2,26.8-32.2,35.3
				C847.4,561.1,830.5,565.4,810.8,565.4z M811,524.5c9.5,0,17.3-2.8,23.2-8.5c5.9-5.7,10.2-13.1,12.9-22.3
				c2.7-9.2,4.1-19.3,4.1-30.2c0-10.3-1.2-20-3.7-29.1c-2.5-9.1-6.6-16.5-12.4-22.2c-5.8-5.7-13.9-8.6-24-8.6
				c-9.8,0-17.7,2.7-23.7,8.1c-6,5.4-10.3,12.6-13,21.7s-4.1,19.1-4.1,30.2c0,10.2,1.2,19.9,3.7,29.3c2.4,9.4,6.7,17,12.6,22.9
				C792.6,521.5,800.7,524.5,811,524.5z"/>
			<path class="st2" d="M1101.6,366.7l-73.1,194.9h-39.8l-73.3-194.9h49.8l42.6,124.2h1.5l42-124.2H1101.6z"/>
			<path class="st2" d="M255.2,897.3c-22.6-0.3-40.8-6-54.7-17.3c-13.8-11.3-20.7-28.5-20.7-51.6v-130h14.7v130
				c0,16.3,4.9,29.5,14.6,39.6c9.7,10.1,24.8,15.1,45.1,15.1c18,0,32.5-4.7,43.5-14.1c11.1-9.4,16.6-23.9,16.6-43.5v-127h14.7v195.3
				h-13.6l-1.1-35.8c-3.5,12.1-10.2,21.7-20.2,28.9C284.3,893.9,271.3,897.4,255.2,897.3z"/>
			<path class="st2" d="M398.8,893.9V699h13.6v29c4.8-8.7,11.6-16.3,20.4-22.9c8.8-6.6,20.7-9.9,35.8-9.9c7.5,0,15.2,1.2,22.9,3.7
				c7.7,2.5,14.7,6.1,20.9,10.9c6.2,4.8,10.8,10.8,13.7,17.8c5.9-10.2,14-18.1,24.4-23.8c10.4-5.7,22.1-8.6,35.3-8.6
				c6.5,0,13.5,0.9,20.8,2.6c7.3,1.8,14.2,5.1,20.6,10.1c6.4,5,11.7,12.2,15.7,21.8c4.1,9.6,6.1,22.2,6.1,37.9v126.3h-14.7V767.6
				c0-15.7-2.3-27.7-6.9-36.1c-4.6-8.4-10.6-14.1-17.9-17.2c-7.3-3.1-15.3-4.7-23.8-4.7c-7.4,0-15.4,1.4-23.8,4.1
				c-8.5,2.8-15.7,7.7-21.8,14.7c-6,7-9,17-9,29.8v135.7h-14.7V752.2c0-9.5-2.5-17.5-7.5-23.7c-5-6.3-11.2-11-18.7-14.1
				c-7.4-3.1-14.8-4.7-22.1-4.7c-8.2,0-16.5,1.6-24.9,4.8s-15.5,8.4-21.2,15.6c-5.7,7.2-8.6,16.6-8.6,28.3v135.7H398.8z"/>
			<path class="st2" d="M766.7,897.7c-19.2,0-34.5-4.8-45.7-14.3c-11.2-9.5-16.9-22.6-16.9-39.2c0-21.9,7.1-37.8,21.2-47.8
				c14.1-10,37.3-15.6,69.6-16.7l45-1.5v-18.8c0-14.9-4.6-27-13.7-36.1c-9.1-9.1-23.2-13.7-42.1-13.7c-14.5,0-26.6,3.4-36.4,10.1
				c-9.8,6.7-15.8,17.2-17.9,31.4h-15.8c1-16.8,7.3-30.3,19-40.5c11.7-10.2,29-15.3,51.8-15.3c20.9,0,37.7,5.2,50.4,15.5
				c12.8,10.4,19.1,26.4,19.1,48.2v134.9H841l-0.6-39.6c-8.4,16.2-19.2,27.5-32.4,33.8C794.8,894.5,781,897.7,766.7,897.7z
				 M769.2,883.7c8.2,0,16.4-1.5,24.7-4.4c8.3-2.9,15.9-7,22.9-12.1c7-5.1,12.6-10.8,16.9-17.1c4.3-6.3,6.4-12.7,6.4-19.2v-38.1
				l-37.9,0.8c-20.7,0.4-37.1,2.3-49.1,5.8c-12,3.5-20.6,8.8-25.7,15.9c-5.2,7.1-7.7,16.3-7.7,27.6c0,12.8,4.5,22.8,13.6,30
				C742.2,880.2,754.2,883.7,769.2,883.7z"/>
			<path class="st2" d="M995.3,711.9h-44.7v138.3c0,9,0.8,15.6,2.4,19.7c1.6,4.1,4.5,6.7,8.9,7.7c4.3,1.1,10.6,1.6,18.8,1.6h16.6
				V892c-2.4,0.8-5.7,1.3-10.1,1.5c-4.3,0.3-8.9,0.4-13.7,0.4c-14.7,0-24.7-3.4-29.9-10.2c-5.2-6.8-7.8-18-7.8-33.5V711.9h-31.7V699
				h31.7l3-54.7h11.9V699h44.7V711.9z"/>
			<path class="st2" d="M1123.9,695.3c19.1,0,35.3,4.6,48.7,13.7c13.4,9.1,22,23.2,25.9,42.1l-16,0.8c-2.3-12.8-8.5-23.1-18.6-30.7
				c-10.1-7.7-22.8-11.5-38.2-11.5c-21.4,0-38.6,7.1-51.7,21.3c-13.1,14.2-19.7,36.1-19.7,65.8c0,26.1,5.8,47.2,17.3,63.1
				c11.6,16,29.5,23.9,53.7,23.9c14.3,0,26.9-3.7,37.6-11.2c10.7-7.5,17.2-17.7,19.5-30.6h16c-2.8,16.7-10.6,30.2-23.5,40.4
				c-12.9,10.2-29.9,15.4-51.2,15.4c-25.5,0-46.1-8.2-61.7-24.6c-15.6-16.4-23.5-41.6-23.5-75.7c0-20.5,3.1-38.4,9.2-53.6
				c6.2-15.3,15.6-27.2,28.2-35.7C1088.7,699.5,1104.6,695.3,1123.9,695.3z"/>
			<path class="st2" d="M1257.3,893.9V613.8h13.6v114.2c5.2-9.3,13.4-17.1,24.9-23.4c11.4-6.3,25.1-9.4,40.9-9.4
				c12.9,0,24.5,2.3,34.8,6.9c10.2,4.6,18.3,11,24.3,19.1c6,8.2,9,17.6,9,28.3v144.4H1390V755.2c0-14.3-4.8-25.5-14.4-33.5
				c-9.6-8-22.7-12.1-39.3-12.1c-11.4,0-22.1,1.8-31.9,5.3c-9.8,3.5-17.7,8.9-23.6,16c-5.9,7.2-8.9,16.3-8.9,27.3v135.7H1257.3z"/>
		</g>
	</g>
</g>
</svg>
