<?xml version="1.0" encoding="utf-8"?>
<!-- Generator: Adobe Illustrator 24.2.1, SVG Export Plug-In . SVG Version: 6.00 Build 0)  -->
<svg version="1.1" id="Capa_1" xmlns="http://www.w3.org/2000/svg" xmlns:xlink="http://www.w3.org/1999/xlink" x="0px" y="0px"
	 viewBox="0 0 24 24" style="enable-background:new 0 0 24 24;" xml:space="preserve">
<style type="text/css">
	.st0{fill:none;}
	.st1{fill:#00ECF2;}
</style>
<rect class="st0" width="24" height="24"/>
<path class="st1" d="M24,11.9c-0.2-0.3-0.4-0.5-0.7-0.5H2.1l2.3-2.5c0.3-0.3,0.3-0.6,0-0.9C4.2,7.7,3.8,7.7,3.6,8l-3.4,3.6
	C0,11.7,0,11.9,0,12c0,0.1,0,0.3,0.2,0.4L3.6,16C3.6,16,3.8,16.2,4,16.2c0.2,0,0.3-0.1,0.5-0.2c0.2-0.2,0.2-0.3,0.2-0.4
	c0-0.1,0-0.3-0.2-0.4l-2.3-2.5h21.2c0.3,0,0.6-0.3,0.6-0.6L24,11.9z"/>
</svg>
