<?xml version="1.0" encoding="utf-8"?>
<!-- Generator: Adobe Illustrator 24.2.1, SVG Export Plug-In . SVG Version: 6.00 Build 0)  -->
<svg version="1.1" id="Capa_1" xmlns="http://www.w3.org/2000/svg" xmlns:xlink="http://www.w3.org/1999/xlink" x="0px" y="0px"
	 viewBox="0 0 64 64" style="enable-background:new 0 0 64 64;" xml:space="preserve">
<style type="text/css">
	.st0{fill:#FFFFFF;}
	.st1{fill:none;}
</style>
<g>
	<path class="st0" d="M15.4,16.7c-0.2,0.1-0.6,0.2-1.1,0.2v0.7h1v4.3h1.3v-5.8h-0.8C15.8,16.4,15.7,16.5,15.4,16.7z"/>
	<path class="st0" d="M20,16c-0.7,0-1.2,0.3-1.6,0.8s-0.6,1.3-0.6,2.2c0,1,0.2,1.7,0.6,2.2S19.3,22,20,22s1.2-0.3,1.6-0.8
		s0.6-1.2,0.6-2.2s-0.2-1.7-0.6-2.2S20.7,16,20,16z M20.8,20.5C20.6,20.8,20.4,21,20,21c-0.3,0-0.6-0.2-0.8-0.5
		C19,20.2,19,19.7,19,19s0.1-1.3,0.2-1.6c0.2-0.3,0.4-0.5,0.8-0.5c0.3,0,0.6,0.2,0.8,0.5C21,17.7,21,18.2,21,19
		C21,19.7,20.9,20.2,20.8,20.5z"/>
	<path class="st0" d="M26.4,8.9c-0.1-0.1-0.6-0.5-1.4-0.8c-0.7-0.3-1.5-0.6-2.5-0.7c-0.2,0-0.3,0-0.5,0h-7.9c-0.2,0-0.4,0-0.6,0
		c-0.2,0-0.4,0-0.5,0.1c-1.9,0.3-3.2,1.4-3.3,1.4L4.1,13l4.8,6.5l2.1-1.4v12.6h14.2V18.1l2.1,1.4l4.8-6.5L26.4,8.9z M21.6,8.3
		c-0.8,1.3-2.2,2.1-3.8,2.1c-1.6,0-3-0.8-3.8-2.1C14,8.3,21.6,8.3,21.6,8.3z M10.4,17.3l-1.3,0.9l-3.6-4.9l1.3-0.9l0,0L10.4,17.3
		L10.4,17.3z M24.2,16.2v13.4H12V16.2L10.8,17l0,0l-3.7-5l3.2-2.4c0,0,0.4-0.3,1.1-0.7c0.5-0.3,1.2-0.5,2-0.6
		c0.8,1.5,2.5,2.6,4.3,2.6c1.9,0,3.5-1.1,4.4-2.6c2.1,0.1,3.6,1.3,3.6,1.3L29,12l-3.7,5L24.2,16.2z M27.1,18.1l-1.4-0.9l3.7-5l1.3,1
		L27.1,18.1z"/>
	<path class="st0" d="M43.8,43.5h3.1c-0.3,0.5-0.6,0.9-0.9,1.4c-0.2,0.5-0.5,0.9-0.6,1.4c-0.2,0.4-0.3,0.8-0.4,1.2
		c-0.1,0.4-0.1,0.7-0.2,0.9h1.3c0-0.3,0.1-0.6,0.1-0.9c0.1-0.3,0.2-0.7,0.3-1c0.1-0.4,0.3-0.7,0.5-1.1c0.2-0.4,0.3-0.7,0.5-1
		s0.4-0.6,0.6-0.8v-1h-4.3C43.8,42.6,43.8,43.5,43.8,43.5z"/>
	<path class="st0" d="M54.2,34.9c-0.1-0.1-0.6-0.5-1.4-0.8c-0.7-0.3-1.5-0.6-2.5-0.7c-0.2,0-0.3,0-0.5,0H42c-0.2,0-0.4,0-0.6,0
		c-0.2,0-0.4,0-0.5,0.1c-2,0.3-3.2,1.4-3.3,1.4l-5.7,4.2l4.8,6.5l2.1-1.4v12.5H53V44.1l2.1,1.4l4.8-6.5L54.2,34.9z M49.4,34.4
		c-0.8,1.3-2.2,2.1-3.8,2.1s-3-0.8-3.8-2.1H49.4z M54.9,44.2l-2.9-2v13.4h-5.9v-5.8h-1v5.8h-5.3V42.3l-2.9,2l-3.6-4.9l4.9-3.6
		c0,0,1.3-1,3.1-1.3c0.8,1.4,2.2,2.4,3.8,2.5v4.3h1V37l0,0c1.7-0.2,3.1-1.2,3.9-2.6c2.1,0.1,3.6,1.3,3.6,1.3l4.9,3.6L54.9,44.2z"/>
	<polygon class="st0" points="34.6,24.6 33.2,24.6 32,28.1 31.9,28.1 30.7,24.6 29.3,24.6 31.4,30.1 32.5,30.1 	"/>
	<path class="st0" d="M37.4,29.1c-0.2,0-0.4-0.1-0.7-0.2c-0.2-0.1-0.4-0.3-0.5-0.6h-1.4c0.1,0.4,0.2,0.8,0.5,1.1
		c0.3,0.3,0.6,0.5,0.9,0.6c0.4,0.1,0.7,0.2,1.1,0.2c0.7,0,1.3-0.2,1.7-0.5s0.6-0.7,0.6-1.3c0-0.2,0-0.4-0.1-0.6s-0.2-0.4-0.4-0.6
		s-0.5-0.3-0.9-0.4l-0.9-0.2c-0.3-0.1-0.5-0.1-0.7-0.2c-0.1-0.1-0.2-0.2-0.2-0.3c0-0.2,0.1-0.3,0.3-0.4s0.4-0.1,0.7-0.1
		s0.5,0.1,0.7,0.2s0.3,0.3,0.3,0.5h1.3c0-0.5-0.2-1-0.6-1.3c-0.4-0.3-1-0.5-1.6-0.5c-0.8,0-1.3,0.2-1.7,0.5s-0.6,0.8-0.6,1.3
		s0.2,0.8,0.5,1.1c0.3,0.2,0.7,0.4,1.2,0.5l1,0.2c0.3,0,0.4,0.1,0.5,0.2s0.2,0.2,0.2,0.4c-0.2,0.1-0.3,0.2-0.4,0.3
		C38,29.1,37.7,29.1,37.4,29.1z"/>
</g>
<rect class="st1" width="64" height="64"/>
</svg>
