<?xml version="1.0" encoding="utf-8"?>
<!-- Generator: Adobe Illustrator 24.2.1, SVG Export Plug-In . SVG Version: 6.00 Build 0)  -->
<svg version="1.1" id="Capa_1" xmlns="http://www.w3.org/2000/svg" xmlns:xlink="http://www.w3.org/1999/xlink" x="0px" y="0px"
	 viewBox="0 0 64 64" style="enable-background:new 0 0 64 64;" xml:space="preserve">
<style type="text/css">
	.st0{fill:none;}
	.st1{fill:#00ECF2;}
</style>
<rect class="st0" width="64" height="64"/>
<path class="st1" d="M16.2,5.8v2h5.8v8.8h19.7V7.8H46V31h-4.5c-0.5-4.9-4.7-8.7-9.6-8.7c-5,0-9.1,3.8-9.6,8.7h-4.5V9.2h-2v49.1h32.3
	V5.8H16.2z M24.1,14.6V7.8h15.7v6.8H24.1z M24.4,31c0.4-3.8,3.7-6.7,7.6-6.7c3.9,0,7.1,2.9,7.6,6.7H24.4z M35.8,40.8l0.5-0.2
	l-0.8-1.8L35,39c-1,0.4-2,0.7-3.2,0.7c-3.9,0-7.1-2.9-7.6-6.7h15.2c-0.1,0.9-0.4,1.7-0.8,2.5l-0.2,0.4l1.8,1l0.2-0.4
	c0.5-1,0.9-2.1,1-3.4H46v23.2h-4.2v-8.8H22.1V55h2v-5.6h15.7v6.8h-22V33h4.5c0.5,4.9,4.7,8.7,9.6,8.7C33.2,41.7,34.5,41.4,35.8,40.8
	z"/>
</svg>
