<?xml version="1.0" encoding="utf-8"?>
<!-- Generator: Adobe Illustrator 24.2.1, SVG Export Plug-In . SVG Version: 6.00 Build 0)  -->
<svg version="1.1" id="Capa_1" xmlns="http://www.w3.org/2000/svg" xmlns:xlink="http://www.w3.org/1999/xlink" x="0px" y="0px"
	 viewBox="0 0 64 64" style="enable-background:new 0 0 64 64;" xml:space="preserve">
<style type="text/css">
	.st0{fill:none;}
	.st1{fill:#00ECF2;}
</style>
<rect class="st0" width="64" height="64"/>
<g>
	<rect x="21.2" y="7.8" class="st1" width="15.1" height="2"/>
	<path class="st1" d="M46,33.5V13.5h3.9v-2H7.5v2h3.9v40.2h26.4c2.1,1.6,4.6,2.5,7.2,2.5c6.3,0,11.4-5.1,11.4-11.4
		C56.5,39,51.9,34,46,33.5z M45,54.3c-2.2,0-4.4-0.8-6.2-2.3c-2.1-1.8-3.3-4.4-3.3-7.1c0-5.2,4.2-9.4,9.4-9.4c5.1,0,9.4,4.3,9.4,9.4
		C54.3,50.1,50.2,54.3,45,54.3z M44,33.5c-0.2,0-0.3,0-0.5,0.1c-0.1,0-0.2,0.1-0.3,0.1c-0.2,0-0.3,0-0.5,0.1c-0.2,0-0.4,0-0.5,0.1
		c-0.2,0-0.3,0-0.5,0.1h-0.1L41.5,34c-0.1,0-0.1,0.1-0.2,0.1c-0.1,0-0.2,0.1-0.3,0.1c-0.1,0-0.1,0.1-0.2,0.1c-0.1,0-0.2,0.1-0.3,0.1
		c-0.1,0-0.1,0.1-0.2,0.1c0,0-0.1,0.1-0.1,0.1l-0.2,0l-0.1,0.1c-0.1,0-0.2,0.1-0.3,0.2c-0.1,0.1-0.2,0.1-0.2,0.2
		c-0.1,0-0.1,0.1-0.2,0.1L39,35.2c0,0-0.1,0.1-0.1,0.1c-0.1,0-0.1,0.1-0.2,0.2c-0.2,0.1-0.4,0.3-0.5,0.4c0,0-0.1,0.1-0.1,0.1
		C38,36,37.9,36,37.7,36.1c-0.1,0.1-0.3,0.2-0.4,0.4l-0.7,0.7c-0.1,0.1-0.2,0.2-0.4,0.5c-0.1,0.1-0.2,0.3-0.3,0.5
		c-0.1,0.1-0.1,0.1-0.1,0.2c0,0-0.1,0.1-0.1,0.1l-0.1,0.1c0,0.1-0.1,0.1-0.1,0.2c0,0.1-0.1,0.1-0.1,0.2c-0.1,0.1-0.2,0.3-0.3,0.5
		c0,0-0.1,0.1-0.1,0.1C35,39.8,35,39.9,34.9,40c-0.1,0.1-0.1,0.2-0.1,0.3l-0.1,0.1c-0.1,0.1-0.1,0.3-0.1,0.4c0,0.1,0,0.1,0,0.2
		c-0.1,0.1-0.1,0.2-0.1,0.3l-0.1,0.1c-0.1,0.2-0.1,0.3-0.1,0.4c0,0.1,0,0.1-0.1,0.2L34,42.2v0.1c0,0.1-0.1,0.2-0.1,0.4
		c0,0.1,0,0.2,0,0.3c0,0.2-0.1,0.3-0.1,0.4c0,0.1,0,0.1,0,0.2l-0.1,0.1v0.1c0,0.2,0,0.3,0,0.5c0,0.2-0.1,0.4-0.1,0.6
		c0,0.4,0,0.7,0.1,1.2c0,0.1,0,0.3,0.1,0.5c0,0.1,0,0.2,0.1,0.3c0,0.1,0,0.2,0,0.3c0,0.1,0,0.3,0.1,0.4v0.1l0.1,0.1
		c0,0.1,0,0.1,0.1,0.2c0,0.1,0,0.2,0.1,0.3c0,0.1,0,0.2,0.1,0.3v0.1l0.1,0.1c0.1,0.1,0.1,0.3,0.1,0.4l0,0.2l0.1,0.1
		c0,0.1,0.1,0.2,0.2,0.3l0.3,0.5l0.1,0.1c0,0.1,0.1,0.1,0.1,0.2c0.1,0.2,0.3,0.5,0.6,0.8c0,0,0.1,0.1,0.1,0.1H13.4V13.5H44V33.5z"/>
	<polygon class="st1" points="46,37.1 44,37.1 44,45.4 49.8,51 51.2,49.5 46,44.4 	"/>
</g>
</svg>
