<?xml version="1.0" encoding="utf-8"?>
<!-- Generator: Adobe Illustrator 24.2.1, SVG Export Plug-In . SVG Version: 6.00 Build 0)  -->
<svg version="1.1" id="Capa_1" xmlns="http://www.w3.org/2000/svg" xmlns:xlink="http://www.w3.org/1999/xlink" x="0px" y="0px"
	 viewBox="0 0 64 64" style="enable-background:new 0 0 64 64;" xml:space="preserve">
<style type="text/css">
	.st0{fill:url(#SVGID_1_);}
	.st1{fill:#FFFFFF;}
</style>
<g>
	<g>
		
			<linearGradient id="SVGID_1_" gradientUnits="userSpaceOnUse" x1="0" y1="0" x2="64" y2="64" gradientTransform="matrix(1 0 0 -1 0 64)">
			<stop  offset="0" style="stop-color:#6956E7"/>
			<stop  offset="1" style="stop-color:#B19FFB"/>
		</linearGradient>
		<rect class="st0" width="64" height="64"/>
	</g>
	<g>
		<g>
			<g id="Capa_2-2_9_">
				<g>
					<path class="st1" d="M13.9,22.7c1.1-1.9,2.1-3.7,3.7-5.3c2.9-2.9,6.4-4.8,10.4-5.6c6.7-1.3,12.8,0.3,17.9,4.8
						c0.3,0.3,0.3,0.3,0,0.5c-1.9,1.9-3.5,3.5-5.3,5.3c-0.3,0.3-0.3,0.3-0.5,0c-3.7-3.5-9.3-3.7-13.6-1.3c-2.9,1.6-4.8,4-5.9,6.9
						c-0.3,0.3-0.3,0-0.5,0c-0.5-0.3-1.1-0.8-1.3-1.1c-1.1-1.1-2.4-2.1-3.7-3.2c-0.3-0.3-0.5-0.5-0.8-0.8
						C13.9,22.9,13.9,22.9,13.9,22.7z"/>
				</g>
				<g>
					<path class="st1" d="M46.1,47.7c-1.1,1.1-2.1,1.6-3.2,2.4c-3.7,2.1-7.7,2.9-11.7,2.7c-5.3-0.3-9.9-2.4-13.6-6.1
						c-1.6-1.6-2.7-3.2-3.7-5.1v-0.3c0-0.3,0-0.3,0.3-0.5c1.1-0.8,2.1-1.6,3.5-2.7c0.8-0.8,1.9-1.3,2.7-2.1c0,0,0.3-0.3,0.5,0
						c0.8,2.1,2.1,4,3.7,5.6c2.7,2.1,5.6,3.2,9.1,2.9c2.1-0.3,4.3-0.8,5.9-1.9c0.3,0,0.3,0,0.5,0.3c0.8,0.5,1.6,1.3,2.4,1.9
						c1.1,0.8,2.1,1.6,3.2,2.7C45.9,47.5,46.1,47.5,46.1,47.7z"/>
				</g>
				<g>
					<path class="st1" d="M46.1,47.7c-1.3-1.1-2.4-1.9-3.7-2.9c-0.8-0.8-1.9-1.3-2.7-2.1c0,0,0,0-0.3,0c1.3-0.8,2.4-1.9,2.9-3.2
						c0.5-0.8,0.8-1.9,1.1-2.7c0-0.3,0-0.3-0.3-0.3c-1.9,0-4,0-5.9,0c-1.6,0-2.9,0-4.5,0c-0.3,0-0.5,0-0.5-0.5c0-2.4,0-4.8,0-7.2
						c0-0.3,0-0.3,0.5-0.3c6.1,0,12.5,0,18.7,0c0.3,0,0.5,0,0.5,0.3c0.8,5.1,0.3,9.9-2.1,14.7C48.8,44.8,47.7,46.1,46.1,47.7
						C46.4,47.7,46.1,47.7,46.1,47.7z"/>
				</g>
				<g>
					<path class="st1" d="M20.8,36c-0.3,0-0.5,0.3-0.8,0.5c-1.1,0.8-2.4,1.9-3.5,2.7c-0.8,0.8-1.9,1.3-2.7,2.1
						c-0.8-1.3-1.1-2.7-1.6-4c-0.5-1.6-0.8-3.5-0.5-5.3c0-3.2,0.8-6.1,2.1-9.1c0,0,0-0.3,0.3-0.3l4.5,3.7c0.5,0.5,1.1,0.8,1.6,1.3
						l0.3,0.3c-0.8,2.4-0.8,4.8-0.3,7.2C20.5,35.5,20.5,35.7,20.8,36z"/>
				</g>
			</g>
		</g>
	</g>
</g>
</svg>
