<?xml version="1.0" encoding="utf-8"?>
<!-- Generator: Adobe Illustrator 24.2.1, SVG Export Plug-In . SVG Version: 6.00 Build 0)  -->
<svg version="1.1" id="Capa_1" xmlns="http://www.w3.org/2000/svg" xmlns:xlink="http://www.w3.org/1999/xlink" x="0px" y="0px"
	 viewBox="0 0 64 64" style="enable-background:new 0 0 64 64;" xml:space="preserve">
<style type="text/css">
	.st0{fill:none;}
	.st1{fill:#00ECF2;}
</style>
<rect class="st0" width="64" height="64"/>
<g>
	<path class="st1" d="M29.1,17.9c3.2,0,5.8-2.6,5.8-5.8s-2.6-5.8-5.8-5.8s-5.8,2.6-5.8,5.8S25.9,17.9,29.1,17.9z M29.1,8.3
		c2.1,0,3.8,1.7,3.8,3.8s-1.7,3.8-3.8,3.8s-3.8-1.7-3.8-3.8S27,8.3,29.1,8.3z"/>
	<path class="st1" d="M40.4,24.4c-2.1-2.2-4.2-3.5-6.2-4.1l-0.1-0.1h-7.3c-10.9-0.6-11-10.9-11-11V8.8h-2v0.5
		c0,0.1,0.2,8.2,7.2,11.5v12.3h2V21.7c1.2,0.3,2.4,0.5,3.8,0.6h7c0.1,0,0.5,0.1,1.1,0.4v19.7h-12v-4.1h-2v19.4h2V44.3h11.9v13.3h2
		V23.9c0.7,0.5,1.4,1.1,2.1,1.9l9.8,9.9l1.4-1.4L40.4,24.4z"/>
</g>
</svg>
