<?xml version="1.0" encoding="utf-8"?>
<!-- Generator: Adobe Illustrator 24.2.1, SVG Export Plug-In . SVG Version: 6.00 Build 0)  -->
<svg version="1.1" id="Capa_1" xmlns="http://www.w3.org/2000/svg" xmlns:xlink="http://www.w3.org/1999/xlink" x="0px" y="0px"
	 viewBox="0 0 64 64" style="enable-background:new 0 0 64 64;" xml:space="preserve">
<style type="text/css">
	.st0{fill:none;}
	.st1{fill:#FFFFFF;}
</style>
<rect class="st0" width="64" height="64"/>
<g>
	<path class="st1" d="M35.9,38.3l0.3,0.1l0.3-0.1c8.1-3,8.3-10.4,8.3-10.8v-6.3l-8.7-3.9l-8.7,3.9v6.3
		C27.6,27.8,27.8,35.2,35.9,38.3z M29.6,22.5l6.7-3l6.7,3v5c0,0.3-0.2,6.1-6.7,8.8c-6.5-2.6-6.7-8.5-6.7-8.7V22.5z"/>
	<path class="st1" d="M55.6,32c-1.9,8.9-9.9,15.7-19.4,15.7c-10.9,0-19.8-8.9-19.8-19.8c0-10.9,8.9-19.8,19.8-19.8
		c9.5,0,17.5,6.7,19.4,15.7h2C55.7,13.7,46.9,6.1,36.3,6.1c-12,0-21.8,9.8-21.8,21.8c0,5.4,2,10.4,5.3,14.2L6.3,55.5l2.4,2.4
		l13.4-13.4c3.8,3.2,8.7,5.2,14.1,5.2c10.6,0,19.5-7.6,21.4-17.7H55.6z"/>
</g>
</svg>
