<?xml version="1.0" encoding="utf-8"?>
<!-- Generator: Adobe Illustrator 24.2.1, SVG Export Plug-In . SVG Version: 6.00 Build 0)  -->
<svg version="1.1" id="Capa_1" xmlns="http://www.w3.org/2000/svg" xmlns:xlink="http://www.w3.org/1999/xlink" x="0px" y="0px"
	 viewBox="0 0 64 64" style="enable-background:new 0 0 64 64;" xml:space="preserve">
<style type="text/css">
	.st0{fill:none;}
	.st1{fill:#00ECF2;}
</style>
<rect class="st0" width="64" height="64"/>
<path class="st1" d="M41.1,40l-1.9,2l13.5,13.5h-1.8L35.2,39.8c4.7-3.7,7.4-9.2,7.4-15.1c0-10.5-8.6-19.1-19.1-19.1
	c-10.5,0.1-19,8.7-19,19.1c0,10.5,8.6,19.1,19.1,19.1c3.4,0,6.5-0.8,9.3-2.5l16.9,17h9.7L41.1,40z M23.5,8.6
	c8.9,0,16.2,7.3,16.2,16.2S32.4,41,23.5,41S7.3,33.7,7.3,24.8S14.6,8.6,23.5,8.6z"/>
</svg>
