<?xml version="1.0" encoding="utf-8"?>
<!-- Generator: Adobe Illustrator 24.2.1, SVG Export Plug-In . SVG Version: 6.00 Build 0)  -->
<svg version="1.1" id="Capa_1" xmlns="http://www.w3.org/2000/svg" xmlns:xlink="http://www.w3.org/1999/xlink" x="0px" y="0px"
	 viewBox="0 0 64 64" style="enable-background:new 0 0 64 64;" xml:space="preserve">
<style type="text/css">
	.st0{fill:none;}
	.st1{fill:#00ECF2;}
</style>
<rect class="st0" width="64" height="64"/>
<path class="st1" d="M38.7,28.3l14.5-14.5L42.8,3.5L16,30.3c-3,3-4.7,6.8-5.1,10.7c-0.4,4.2,0.6,8.5,3.2,12.1
	c-0.6,0.1-1.1,0.4-1.6,0.9c-1.3,1.3-1.3,3.5,0,4.8c0.7,0.7,1.5,1,2.4,1s1.7-0.3,2.4-1c0.4-0.4,0.7-1,0.9-1.6
	c6.9,5,16.6,4.4,22.9-1.8c6.9-6.9,6.9-18.1,0-25C40.3,29.5,39.5,28.9,38.7,28.3z M16.2,56.7c-0.1,0.2-0.2,0.4-0.4,0.6
	c-0.3,0.3-0.6,0.4-1,0.4s-0.7-0.1-1-0.4c-0.3-0.3-0.4-0.6-0.4-1s0.1-0.7,0.4-1c0.2-0.2,0.4-0.3,0.6-0.4c0.1,0,0.2,0,0.3,0
	c0.4,0,0.7,0.1,1,0.4C16.2,55.7,16.4,56.2,16.2,56.7z M28.5,53.2c-4,0-7.4-2.2-9.2-5.5c-0.3-0.6-0.6-1.3-0.8-2
	c-0.3-0.9-0.4-1.8-0.4-2.8c0-1.4,0.3-2.7,0.8-4l1.8,0.8c-0.4,1-0.6,2.1-0.6,3.2c0,0.4,0,0.7,0.1,1.1c0.1,0.8,0.3,1.5,0.6,2.2
	c1.3,3,4.2,5,7.7,5c4.6,0,8.3-3.7,8.3-8.3c0-3.4-2.1-6.4-5-7.7c-0.7-0.3-1.4-0.5-2.2-0.6c-0.4,0-0.7-0.1-1.1-0.1c-1,0-2,0.2-2.9,0.5
	l-0.7-1.9c1.2-0.4,2.4-0.7,3.7-0.7c1,0,1.9,0.1,2.8,0.4c0.7,0.2,1.4,0.5,2,0.8c3.3,1.7,5.5,5.2,5.5,9.2
	C38.9,48.5,34.2,53.2,28.5,53.2z"/>
</svg>
