<?xml version="1.0" encoding="utf-8"?>
<!-- Generator: Adobe Illustrator 24.2.1, SVG Export Plug-In . SVG Version: 6.00 Build 0)  -->
<svg version="1.1" id="Capa_1" xmlns="http://www.w3.org/2000/svg" xmlns:xlink="http://www.w3.org/1999/xlink" x="0px" y="0px"
	 viewBox="0 0 64 64" style="enable-background:new 0 0 64 64;" xml:space="preserve">
<style type="text/css">
	.st0{fill:none;}
	.st1{fill:url(#SVGID_1_);}
</style>
<g>
	<rect class="st0" width="64" height="64"/>
	<g>
		<g>
			
				<linearGradient id="SVGID_1_" gradientUnits="userSpaceOnUse" x1="10.9333" y1="91.0667" x2="53.0667" y2="48.9333" gradientTransform="matrix(1 0 0 1 0 -38)">
				<stop  offset="0" style="stop-color:#6956E7"/>
				<stop  offset="1" style="stop-color:#C264E9"/>
			</linearGradient>
			<path class="st1" d="M53.1,10.9C47.5,5.3,40,2.1,32,2.1s-15.5,3.2-21.1,8.8S2.1,24,2.1,32s3.2,15.5,8.8,21.1S24,61.9,32,61.9
				s15.5-3.2,21.1-8.8S61.9,40,61.9,32S58.7,16.5,53.1,10.9z M38.4,24c2.9-2.9,7.7-2.9,10.7,0c0.8,0.8,0.8,1.9,0,2.4
				c-0.3,0.3-0.8,0.5-1.3,0.5c-0.5,0-0.8-0.3-1.3-0.5c-1.6-1.6-4-1.6-5.6,0c-0.8,0.8-1.9,0.8-2.4,0C37.9,25.9,37.9,24.8,38.4,24z
				 M14.9,24c2.9-2.7,7.7-2.7,10.7,0c0.8,0.8,0.8,1.9,0,2.4c-0.3,0.3-0.8,0.5-1.3,0.5s-0.8,0-1.3-0.3c-1.6-1.6-4-1.6-5.6,0
				c-0.8,0.8-1.9,0.8-2.4,0C14.4,25.9,14.4,24.8,14.9,24z M32,52.5c-9.6,0-17.6-7.7-17.6-17.6c0-1.1,0.8-1.9,1.9-1.9h31.5
				c1.1,0,1.9,0.8,1.9,1.9C49.6,44.8,41.6,52.5,32,52.5z"/>
		</g>
	</g>
</g>
</svg>
