<?xml version="1.0" encoding="utf-8"?>
<!-- Generator: Adobe Illustrator 24.2.1, SVG Export Plug-In . SVG Version: 6.00 Build 0)  -->
<svg version="1.1" id="Capa_1" xmlns="http://www.w3.org/2000/svg" xmlns:xlink="http://www.w3.org/1999/xlink" x="0px" y="0px"
	 viewBox="0 0 64 64" style="enable-background:new 0 0 64 64;" xml:space="preserve">
<style type="text/css">
	.st0{fill:none;}
	.st1{fill-rule:evenodd;clip-rule:evenodd;fill:#F0F2FF;}
	.st2{fill:#6956E7;}
</style>
<rect class="st0" width="64" height="64"/>
<circle class="st1" cx="32" cy="32" r="32"/>
<g>
	<g>
		<path class="st2" d="M32,31.5c4.9,0,8.9-4,8.9-8.9s-4-8.9-8.9-8.9s-8.9,4-8.9,8.9S27.1,31.5,32,31.5z M32,15.7
			c3.8,0,6.9,3.1,6.9,6.9s-3.1,6.9-6.9,6.9s-6.9-3.1-6.9-6.9S28.2,15.7,32,15.7z"/>
		<polygon class="st2" points="18.2,37.3 17.3,37.3 17.3,50.3 19.3,50.3 19.3,39.1 44.7,34.7 44.7,50.3 46.7,50.3 46.7,32.3 		"/>
	</g>
</g>
</svg>
