<?xml version="1.0" encoding="utf-8"?>
<!-- Generator: Adobe Illustrator 24.2.1, SVG Export Plug-In . SVG Version: 6.00 Build 0)  -->
<svg version="1.1" id="Capa_1" xmlns="http://www.w3.org/2000/svg" xmlns:xlink="http://www.w3.org/1999/xlink" x="0px" y="0px"
	 viewBox="0 0 64 64" style="enable-background:new 0 0 64 64;" xml:space="preserve">
<style type="text/css">
	.st0{fill:none;}
	.st1{fill:#0B1623;}
</style>
<rect class="st0" width="64" height="64"/>
<path class="st1" d="M55,14.5c-0.5-0.6-1-1.2-1.5-1.8c-2.4-2.6-5.2-4.8-8.4-6.4c-0.8-0.4-1.6-0.8-2.5-1.1c-3.3-1.3-6.9-2-10.6-2
	c-3.6,0-7.3,0.7-10.6,2c-0.8,0.3-1.7,0.7-2.5,1.1c-0.1,0.1-0.2,0.1-0.3,0.2l0.9,1.8c0.4-0.2,0.7-0.4,1.1-0.5L31,15.1v3.8l-11.1,8
	l0,0l-5.5-2l-3.3-10c0.3-0.3,0.6-0.7,0.9-1l-1.5-1.3c0,0-0.1,0.1-0.1,0.1c-0.5,0.6-1,1.2-1.5,1.8c-3.8,5-5.9,11.1-5.9,17.5v0.2
	c0,0.8,0,1.6,0.1,2.4c0.3,4.1,1.6,8,3.5,11.4c0.4,0.7,0.8,1.4,1.2,2c3.8,5.7,9.5,10,16.3,11.9c0.8,0.2,1.5,0.4,2.3,0.5
	c1.8,0.4,3.7,0.5,5.5,0.5c1.9,0,3.7-0.2,5.5-0.5c0.8-0.1,1.5-0.3,2.3-0.5c6.8-1.9,12.6-6.2,16.4-11.9c0.4-0.6,0.8-1.3,1.2-2
	c1.9-3.4,3.1-7.2,3.5-11.3c0.1-0.8,0.1-1.6,0.1-2.4c0-0.1,0-0.1,0-0.2C60.9,25.4,58.7,19.3,55,14.5z M32,5.1c3.2,0,6.3,0.6,9.2,1.6
	L32,13.4l-9.2-6.7C25.7,5.7,28.9,5.1,32,5.1z M32,20.7l10.8,7.8l-4.1,12.7H25.4l-4.1-12.7L32,20.7z M9.7,16.9l2.7,8.4l-7.3,5.3
	C5.4,25.7,7,21,9.7,16.9z M10.3,47.9h10l3.1,9.6C18.1,55.7,13.6,52.3,10.3,47.9z M32,58.9c-2.1,0-4.3-0.3-6.3-0.7l-4-12.2H9
	c-2.3-3.8-3.7-8.1-3.9-12.8l8.7-6.3h0l0,0l5.4,2l0,0L23.5,42v0l-1.8,2.4l1.6,1.2l1.8-2.4h13.8l2.9,3.9l-3.6,11.1
	C36.2,58.7,34.1,58.9,32,58.9z M40.5,57.5l3.1-9.6h10C50.4,52.3,45.8,55.8,40.5,57.5z M55,45.9H43.4L40.5,42l4.6-14.2L33,18.9l0,0
	v-3.8l0,0l10.3-7.5c3.7,1.7,6.8,4.2,9.4,7.3L49.5,25l-2.7,1l0.7,1.9l2.7-1l0,0l8.8,6.4C58.7,37.8,57.3,42.2,55,45.9z M51.4,25.3
	l2.8-8.5c2.7,4,4.4,8.8,4.7,13.9L51.4,25.3z"/>
</svg>
