<?xml version="1.0" encoding="utf-8"?>
<!-- Generator: Adobe Illustrator 24.2.1, SVG Export Plug-In . SVG Version: 6.00 Build 0)  -->
<svg version="1.1" id="Capa_1" xmlns="http://www.w3.org/2000/svg" xmlns:xlink="http://www.w3.org/1999/xlink" x="0px" y="0px"
	 viewBox="0 0 24 24" style="enable-background:new 0 0 24 24;" xml:space="preserve">
<style type="text/css">
	.st0{fill:url(#SVGID_1_);}
	.st1{fill:#0B1623;}
</style>
<g>
	<g>
		
			<linearGradient id="SVGID_1_" gradientUnits="userSpaceOnUse" x1="9.094947e-13" y1="2" x2="24" y2="26" gradientTransform="matrix(1 0 0 -1 0 26)">
			<stop  offset="0" style="stop-color:#B19FFB"/>
			<stop  offset="1" style="stop-color:#FDE0F4"/>
		</linearGradient>
		<rect class="st0" width="24" height="24"/>
	</g>
	<g>
		<g>
			<g>
				<g id="Capa_2-2_8_">
					<g>
						<path class="st1" d="M5.2,8.5c0.4-0.7,0.8-1.4,1.4-2C7.7,5.4,9,4.7,10.5,4.4c2.5-0.5,4.8,0.1,6.7,1.8c0.1,0.1,0.1,0.1,0,0.2
							c-0.7,0.7-1.3,1.3-2,2c-0.1,0.1-0.1,0.1-0.2,0C13.6,7.1,11.5,7,9.9,7.9c-1.1,0.6-1.8,1.5-2.2,2.6c-0.1,0.1-0.1,0-0.2,0
							c-0.2-0.1-0.4-0.3-0.5-0.4C6.6,9.7,6.1,9.3,5.6,8.9C5.5,8.8,5.4,8.7,5.3,8.6C5.2,8.6,5.2,8.6,5.2,8.5z"/>
					</g>
					<g>
						<path class="st1" d="M17.3,17.9c-0.4,0.4-0.8,0.6-1.2,0.9c-1.4,0.8-2.9,1.1-4.4,1c-2-0.1-3.7-0.9-5.1-2.3
							c-0.6-0.6-1-1.2-1.4-1.9v-0.1c0-0.1,0-0.1,0.1-0.2c0.4-0.3,0.8-0.6,1.3-1c0.3-0.3,0.7-0.5,1-0.8c0,0,0.1-0.1,0.2,0
							c0.3,0.8,0.8,1.5,1.4,2.1c1,0.8,2.1,1.2,3.4,1.1c0.8-0.1,1.6-0.3,2.2-0.7c0.1,0,0.1,0,0.2,0.1c0.3,0.2,0.6,0.5,0.9,0.7
							c0.4,0.3,0.8,0.6,1.2,1C17.2,17.8,17.3,17.8,17.3,17.9z"/>
					</g>
					<g>
						<path class="st1" d="M17.3,17.9c-0.5-0.4-0.9-0.7-1.4-1.1c-0.3-0.3-0.7-0.5-1-0.8c0,0,0,0-0.1,0c0.5-0.3,0.9-0.7,1.1-1.2
							c0.2-0.3,0.3-0.7,0.4-1c0-0.1,0-0.1-0.1-0.1c-0.7,0-1.5,0-2.2,0c-0.6,0-1.1,0-1.7,0c-0.1,0-0.2,0-0.2-0.2c0-0.9,0-1.8,0-2.7
							c0-0.1,0-0.1,0.2-0.1c2.3,0,4.7,0,7,0c0.1,0,0.2,0,0.2,0.1c0.3,1.9,0.1,3.7-0.8,5.5C18.3,16.8,17.9,17.3,17.3,17.9
							C17.4,17.9,17.3,17.9,17.3,17.9z"/>
					</g>
					<g>
						<path class="st1" d="M7.8,13.5c-0.1,0-0.2,0.1-0.3,0.2c-0.4,0.3-0.9,0.7-1.3,1c-0.3,0.3-0.7,0.5-1,0.8c-0.3-0.5-0.4-1-0.6-1.5
							c-0.2-0.6-0.3-1.3-0.2-2c0-1.2,0.3-2.3,0.8-3.4c0,0,0-0.1,0.1-0.1L7,9.9c0.2,0.2,0.4,0.3,0.6,0.5l0.1,0.1
							c-0.3,0.9-0.3,1.8-0.1,2.7C7.7,13.3,7.7,13.4,7.8,13.5z"/>
					</g>
				</g>
			</g>
		</g>
	</g>
</g>
</svg>
