<?xml version="1.0" encoding="utf-8"?>
<!-- Generator: Adobe Illustrator 24.2.1, SVG Export Plug-In . SVG Version: 6.00 Build 0)  -->
<svg version="1.1" id="Capa_1" xmlns="http://www.w3.org/2000/svg" xmlns:xlink="http://www.w3.org/1999/xlink" x="0px" y="0px"
	 viewBox="0 0 64 64" style="enable-background:new 0 0 64 64;" xml:space="preserve">
<style type="text/css">
	.st0{fill:none;}
	.st1{fill:#6956E7;}
</style>
<rect class="st0" width="64" height="64"/>
<path class="st1" d="M32,8c-10,0-18.1,8.1-18.1,18.1c0,11.3,13.3,25.2,17.3,29.1L32,56l0.8-0.8c4.1-4,17.3-17.8,17.3-29.1
	C50.1,16.1,42,8,32,8z M32,35.7c-5.3,0-9.4-4.5-9.4-9.8c0-5.3,4.3-9.6,9.6-9.6c1.5,0,3.1,0.4,4.5,1.2l0.4,0.2l-1,1.8l-0.4-0.2
	c-1.3-0.6-2.5-0.9-3.6-0.9c-4.2,0-7.6,3.4-7.6,7.6s3.4,7.6,7.6,7.6c4.2,0,7.6-3.4,7.6-7.6c0-1-0.2-2.1-0.6-3l-0.2-0.4l1.8-0.8
	l0.2,0.5c0.4,1.1,0.7,2.3,0.7,3.7C41.6,31.3,37.3,35.7,32,35.7z"/>
</svg>
