<?xml version="1.0" encoding="utf-8"?>
<!-- Generator: Adobe Illustrator 24.2.1, SVG Export Plug-In . SVG Version: 6.00 Build 0)  -->
<svg version="1.1" id="Capa_1" xmlns="http://www.w3.org/2000/svg" xmlns:xlink="http://www.w3.org/1999/xlink" x="0px" y="0px"
	 viewBox="0 0 50 50" style="enable-background:new 0 0 50 50;" xml:space="preserve">
<style type="text/css">
	.st0{fill:none;}
	.st1{fill:#FFFFFF;}
	.st2{fill:#0B1623;}
</style>
<g>
	<rect class="st0" width="50" height="50"/>
	<path class="st1" d="M44.6,34.2C41,41.5,33.5,46.7,25,46.7C12.9,46.7,3.3,37.1,3.3,25c0-8.8,5.2-16.3,12.5-19.6
		c-1.3,2.7-2.1,5.8-2.1,9.2c0,12.1,9.8,21.7,21.7,21.7C38.8,36.3,41.9,35.6,44.6,34.2z"/>
	<path class="st2" d="M25,48.8C11.9,48.8,1.3,38.1,1.3,25S11.9,1.3,25,1.3S48.8,11.9,48.8,25S38.1,48.8,25,48.8z M25,5.4
		C14.2,5.4,5.4,14.2,5.4,25S14.2,44.6,25,44.6S44.6,35.8,44.6,25S35.8,5.4,25,5.4z"/>
	<path class="st2" d="M46.7,25c0,3.3-0.8,6.5-2.1,9.2c-2.7,1.3-5.8,2.1-9.2,2.1c-12.1,0-21.7-9.6-21.7-21.7c0-3.3,0.8-6.5,2.1-9.2
		c2.7-1.3,6-2.1,9.2-2.1C37.1,3.3,46.7,12.9,46.7,25z"/>
</g>
</svg>
