<?xml version="1.0" encoding="utf-8"?>
<!-- Generator: Adobe Illustrator 24.2.1, SVG Export Plug-In . SVG Version: 6.00 Build 0)  -->
<svg version="1.1" id="Capa_1" xmlns="http://www.w3.org/2000/svg" xmlns:xlink="http://www.w3.org/1999/xlink" x="0px" y="0px"
	 viewBox="0 0 64 64" style="enable-background:new 0 0 64 64;" xml:space="preserve">
<style type="text/css">
	.st0{fill:none;}
	.st1{fill:#0B1623;}
</style>
<rect class="st0" width="64" height="64"/>
<g>
	<path class="st1" d="M38.7,28.3l14.5-14.5L42.8,3.5l-6.9,6.9l1.4,1.4l5.5-5.5l7.5,7.5L36.9,27.2l-1.5,1.5c0.6,0.3,1.2,0.6,1.8,1
		c0.9,0.6,1.6,1.2,2.4,2c6.1,6.1,6.1,16.1,0,22.2c-3,3-6.9,4.6-11.1,4.6s-8.1-1.6-11.1-4.6s-4.6-7-4.6-11c0-0.9,0.1-1.8,0.2-2.6
		c0.5-3.1,2-6.1,4.4-8.5l5.8-5.8l10.9-11l-1.4-1.4L16,30.3c-2.1,2.1-3.5,4.6-4.4,7.2c-0.1,0.4-0.2,0.7-0.3,1.1
		c-0.2,0.8-0.3,1.6-0.4,2.4c-0.4,4.2,0.6,8.5,3.2,12.1c-0.6,0.1-1.1,0.4-1.6,0.9c-1.3,1.3-1.3,3.5,0,4.8c0.7,0.7,1.5,1,2.4,1
		s1.7-0.3,2.4-1c0.4-0.4,0.7-1,0.9-1.6c3.1,2.2,6.7,3.3,10.3,3.3c4.5,0,9.1-1.7,12.5-5.2c6.9-6.9,6.9-18.1,0-25
		C40.3,29.5,39.5,28.9,38.7,28.3z M15.9,57.3c-0.3,0.3-0.6,0.4-1,0.4s-0.7-0.2-1-0.4c-0.5-0.5-0.5-1.4,0-2c0.3-0.3,0.6-0.4,1-0.4
		s0.7,0.1,1,0.4C16.4,55.9,16.4,56.8,15.9,57.3z"/>
	<path class="st1" d="M19,38.8c-0.5,1.3-0.8,2.6-0.8,4c0,1,0.1,1.9,0.4,2.8c0.2,0.7,0.5,1.4,0.8,2c1.7,3.3,5.2,5.5,9.2,5.5
		c5.7,0,10.3-4.6,10.3-10.3c0-4-2.2-7.4-5.5-9.2c-0.6-0.3-1.3-0.6-2-0.8c-0.9-0.3-1.8-0.4-2.8-0.4c-1.3,0-2.5,0.2-3.7,0.7l0.7,1.9
		c0.9-0.4,1.9-0.5,2.9-0.5c0.4,0,0.8,0,1.1,0.1c0.8,0.1,1.5,0.3,2.2,0.6c3,1.3,5,4.2,5,7.7c0,4.6-3.8,8.3-8.3,8.3
		c-3.4,0-6.4-2.1-7.7-5c-0.3-0.7-0.5-1.4-0.6-2.2c-0.1-0.4-0.1-0.7-0.1-1.1c0-1.1,0.2-2.2,0.6-3.2L19,38.8z"/>
</g>
</svg>
